<svg viewBox="-960 -488.5 1920 977" width="1920" height="977" style="background-color: rgb(170, 170, 170);"><defs></defs><g inkscape:label="Outline" inkscape:groupmode="layer" id="outline_layer"><path d="M 192.59 0 L 70.46 81.36 L 34.39 59.57 L 17.4 70.33 L -16.99 49.06 L -70.46 81.36 L -192.59 0 L -216.66 -208.48 L 0 -290.06 L 216.66 -208.48 zM 65.66 -151.62 L 65.24 -140.21 L 136.66 -107.39 L 140.92 -162.71 L 30.97 -209.27 L 30.28 -167.61 zM -139.78 -147.96 L -62.8 -181.29 L -30.25 -165.91 L -30.96 -209.27 L -140.91 -162.72 z" fill="none" stroke="black" id="outline" stroke-width="0.65mm"></path></g><g inkscape:label="Edges" inkscape:groupmode="layer" id="edges_layer"><path d="M -30.25 -165.91 L -30.96 -209.27 M 30.96 -209.27 L 30.28 -167.61 M 65.24 -140.21 L 136.66 -107.39 M 67.89 -95.96 L 81.15 -103.07 L 82.07 -123.19 L 68.67 -116.2 M 82.07 -123.19 L 64.92 -131.18 L 54.51 -125.87 M 64.92 -131.18 L 65.65 -151.62 L 15.87 -174.12 L 0 -166.78 L -16.23 -159.29 L -62.8 -181.29 L -139.78 -147.95 M 0 -166.78 L 0 -222.38 L 140.92 -162.72 L 134.36 -77.57 L 171.95 -59.57 L 174.02 -80.38 L 185.18 -192.44 L 0 -265.34 L 0 -222.38 L -140.92 -162.72 L -139.22 -140.66 L -66.41 -172.54 L 0 -140.66 L 0 -119.13 L -17.4 -110.52 L -35.23 -101.7 L -53.5 -92.66 L -72.22 -83.39 L -89.16 -92.66 L -105.69 -101.7 L -121.82 -110.52 L -137.56 -119.13 L -139.22 -140.66 L -73.13 -105.56 L -72.22 -83.39 M -73.13 -105.56 L -17.61 -132.21 L 0 -140.66 M -137.56 -119.13 L -176.15 -101.7 L -185.18 -192.44 L 0 -265.34 M -185.18 -192.44 L -216.66 -208.48 L 0 -290.06 L 216.66 -208.48 L 185.18 -192.44 M 216.66 -208.48 L 192.59 0 L 70.46 81.36 L 74.07 0 L 171.95 -59.57 M 74.07 0 L 36.11 -20.85 L 70.46 -40.68 L 34.39 -59.57 L 67.18 -77.57 L 68.78 -119.13 L 33.59 -135.75 L 65.65 -151.62 M 68.78 -119.13 L 35.23 -101.7 L -18.28 -73.89 L -76.02 -43.89 L -176.15 -101.7 M -76.02 -43.89 L -70.46 81.36 L -192.59 0 L -216.66 -208.48 M -70.46 81.36 L -16.99 49.05 L -17.2 29.78 L 0 19.62 L 17.19 29.78 L 34.8 40.19 L 34.39 59.57 L 70.46 81.36 M 34.39 59.57 L 17.4 70.33 L -16.99 49.05 M 17.4 70.33 L 17.61 50.85 L 34.8 40.19 M 17.61 50.85 L -17.2 29.78 M 0 19.62 L 0 0 L 35.23 20.34 L 36.11 -20.85 M 0 0 L 16.99 -9.81 L 34.39 0 L 35.65 0.71 M 16.99 -9.81 L 17.2 -29.78 L 36.08 -19.39 M 17.2 -29.78 L 33.99 -39.24 L 34.39 -59.57 M 33.99 -39.24 L 51.59 -29.78 M -124.36 -24.55 L -134.36 -19.39 L -152.94 -9.81 L -121.82 10.05 L -124.82 -30.89 L -156.62 -50.24 L -154.76 -29.78 L -152.94 -9.81 M -66.81 -125.66 L -67.18 -135.75 L -67.97 -156.97 L -104.41 -140.66 L -71.33 -123.54 L -34.8 -140.66 L -67.97 -156.97 " fill="none" stroke="black" stroke-width="0.35mm"></path></g><g inkscape:label="Polygons" inkscape:groupmode="layer" id="polygons_layer" style="display:none"><path d="M 16.6 -258.8 L 16.6 -258.8 L 33.59 -252.12 L 33.59 -252.12 L 33.59 -252.12 L 144.44 -208.48 L 144.44 -208.48 L 144.44 -208.48 L 185.18 -192.44 L 185.18 -192.44 L 180.55 -145.94 L 180.55 -145.94 L 174.02 -80.38 L 174.02 -80.38 L 174.02 -80.38 L 171.95 -59.57 L 134.36 -77.57 L 134.36 -77.57 L 140.92 -162.72 L 32.83 -208.48 L 0 -222.38 L 0 -166.78 L 0 -166.78 L 0 -166.78 L -16.23 -159.29 L -30.25 -165.91 L -30.96 -209.27 L 0 -222.38 L 0 -222.38 L 0 -265.34 L 0 -265.34 L 16.6 -258.8 zM 176.15 -101.7 L 176.15 -101.7 L 176.15 -101.7 zM 176.15 -101.7 L 176.15 -101.7 L 176.15 -101.7 zM 0 -181.29 L 0 -181.29 L 0 -181.29 z" fill="none" stroke="black" id="0|0|10||-4" stroke-width="0.35mm"></path><path d="M 0 -265.34 L 0 -222.38 L 0 -222.38 L -140.92 -162.72 L -139.22 -140.66 L -139.22 -140.66 L -139.22 -140.66 L -137.56 -119.13 L -176.14 -101.7 L -176.15 -101.7 L -176.15 -101.7 L -176.15 -101.7 L -185.18 -192.44 L -185.18 -192.44 L 0 -265.34 L 0 -265.34 zM 30.28 -167.61 L 15.87 -174.12 L 0 -166.78 L 0 -222.38 L 30.96 -209.27 zM 0 -181.29 L 0 -181.29 L 0 -181.29 z" fill="none" stroke="black" id="10|0|0||-4" stroke-width="0.35mm"></path><path d="M 94.2 -126.9 L 136.66 -107.39 L 134.36 -77.57 L 134.36 -77.57 L 171.95 -59.57 L 171.95 -59.57 L 74.07 0 L 74.07 0 L 36.11 -20.85 L 36.11 -20.85 L 36.11 -20.85 L 70.46 -40.68 L 34.39 -59.57 L 34.39 -59.57 L 34.39 -59.57 L 34.39 -59.57 L 67.18 -77.57 L 67.89 -95.96 L 81.15 -103.07 L 81.15 -103.07 L 82.07 -123.19 L 64.92 -131.18 L 65.24 -140.21 L 94.2 -126.9 zM 36.11 -20.85 L 36.11 -20.85 L 36.11 -20.85 z" fill="none" stroke="black" id="0|10|0||4" stroke-width="0.35mm"></path><path d="M -32.1 -166.78 L -16.23 -159.29 L 0 -166.78 L 0 -166.78 L 0 -166.78 L 15.87 -174.12 L 65.65 -151.62 L 65.65 -151.62 L 65.65 -151.62 L 33.59 -135.75 L 68.78 -119.13 L 35.23 -101.7 L 35.23 -101.7 L 35.23 -101.7 L -18.28 -73.89 L -18.28 -73.89 L -76.02 -43.89 L -76.02 -43.89 L -111.11 -64.15 L -111.11 -64.15 L -111.11 -64.15 L -176.15 -101.7 L -176.15 -101.7 L -176.15 -101.7 L -176.15 -101.7 L -176.14 -101.7 L -137.56 -119.13 L -137.56 -119.13 L -121.82 -110.52 L -121.82 -110.52 L -121.82 -110.52 L -121.82 -110.52 L -105.69 -101.7 L -105.69 -101.7 L -105.69 -101.7 L -105.69 -101.7 L -89.16 -92.66 L -89.16 -92.66 L -89.16 -92.66 L -89.16 -92.66 L -89.16 -92.66 L -72.22 -83.39 L -53.5 -92.66 L -53.5 -92.66 L -53.5 -92.66 L -35.23 -101.7 L -35.23 -101.7 L -17.4 -110.52 L -17.4 -110.52 L 0 -119.13 L 0 -140.66 L -66.41 -172.54 L -83.98 -164.85 L -83.98 -164.85 L -101.96 -156.97 L -101.96 -156.97 L -101.96 -156.97 L -139.22 -140.66 L -139.78 -147.95 L -131.31 -151.62 L -131.31 -151.62 L -131.31 -151.62 L -62.8 -181.29 L -32.1 -166.78 z" fill="none" stroke="black" id="0|10|0||6" stroke-width="0.35mm"></path><path d="M 48.69 -271.73 L 48.69 -271.73 L 216.66 -208.48 L 185.18 -192.44 L 144.44 -208.48 L 144.44 -208.48 L 144.44 -208.48 L 33.59 -252.12 L 33.59 -252.12 L 33.59 -252.12 L 16.6 -258.8 L 16.6 -258.8 L 16.6 -258.8 L 0 -265.34 L 0 -265.34 L 0 -265.34 L -185.18 -192.44 L -216.66 -208.48 L 0 -290.06 L 48.69 -271.73 z" fill="none" stroke="black" id="0|10|0||10" stroke-width="0.35mm"></path><path d="M 34.39 0 L 35.65 0.71 L 35.23 20.34 L 0 0 L 0 0 L 16.99 -9.81 L 34.39 0 zM -137.56 0 L -137.56 0 L -137.56 0 L -152.94 -9.81 L -152.94 -9.81 L -152.94 -9.81 L -134.36 -19.39 L -134.36 -19.39 L -134.36 -19.39 L -124.36 -24.55 L -121.82 10.05 z" fill="none" stroke="black" id="0|10|0||2" stroke-width="0.35mm"></path><path d="M -124.36 -24.55 L -134.36 -19.39 L -134.36 -19.39 L -134.36 -19.39 L -152.94 -9.81 L -152.94 -9.81 L -152.94 -9.81 L -154.76 -29.78 L -154.76 -29.78 L -154.76 -29.78 L -156.62 -50.24 L -124.82 -30.89 zM -67.97 -156.97 L -67.18 -135.75 L -67.18 -135.75 L -67.18 -135.75 L -66.81 -125.66 L -71.33 -123.54 L -104.41 -140.66 L -85.98 -148.91 L -85.98 -148.91 L -67.97 -156.97 L -67.97 -156.97 z" fill="none" stroke="black" id="10|0|0||-3" stroke-width="0.35mm"></path><path d="M 35.65 0.71 L 34.39 0 L 34.39 0 L 16.99 -9.81 L 16.99 -9.81 L 17.19 -29.78 L 17.2 -29.78 L 36.08 -19.39 zM -51.59 -148.91 L -51.59 -148.91 L -34.8 -140.66 L -66.81 -125.66 L -67.18 -135.75 L -67.18 -135.75 L -67.18 -135.75 L -67.97 -156.97 L -67.97 -156.97 L -51.59 -148.91 z" fill="none" stroke="black" id="0|0|10||1" stroke-width="0.35mm"></path><path d="M -180.55 -145.94 L -176.15 -101.7 L -176.15 -101.7 L -176.15 -101.7 L -111.11 -64.15 L -111.11 -64.15 L -111.11 -64.15 L -76.02 -43.89 L -74.07 0 L -74.07 0 L -74.07 0 L -73.13 21.11 L -73.13 21.11 L -73.13 21.11 L -72.22 41.7 L -72.22 41.7 L -72.22 41.7 L -71.33 61.77 L -71.33 61.77 L -71.33 61.77 L -70.46 81.36 L -70.46 81.36 L -70.46 81.36 L -103.17 59.57 L -134.36 38.79 L -134.36 38.79 L -134.36 38.79 L -164.14 18.95 L -192.59 0 L -211.38 -162.72 L -211.38 -162.72 L -216.66 -208.48 L -216.66 -208.48 L -216.66 -208.48 L -185.18 -192.44 zM -154.76 -29.78 L -152.94 -9.81 L -137.56 0 L -137.56 0 L -137.56 0 L -121.82 10.05 L -124.82 -30.89 L -156.62 -50.24 L -154.76 -29.78 z" fill="none" stroke="black" id="0|0|10||6" stroke-width="0.35mm"></path><path d="M 81.15 -103.07 L 81.15 -103.07 L 67.89 -95.96 L 68.67 -116.2 L 82.07 -123.19 L 82.07 -123.19 z" fill="none" stroke="black" id="10|0|0||1" stroke-width="0.35mm"></path><path d="M 68.67 -116.2 L 68.78 -119.13 L 54.51 -125.87 L 64.92 -131.18 L 64.92 -131.18 L 82.07 -123.19 z" fill="none" stroke="black" id="0|10|0||5" stroke-width="0.35mm"></path><path d="M 192.59 0 L 70.46 81.36 L 74.07 0 L 171.95 -59.57 L 174.02 -80.38 L 174.02 -80.38 L 174.02 -80.38 L 180.55 -145.94 L 180.55 -145.94 L 185.18 -192.44 L 185.18 -192.44 L 216.66 -208.48 L 216.66 -208.48 zM 176.15 -101.7 L 176.15 -101.7 L 176.15 -101.7 zM 176.15 -101.7 L 176.15 -101.7 L 176.15 -101.7 z" fill="none" stroke="black" id="10|0|0||6" stroke-width="0.35mm"></path><path d="M 0 -119.13 L -17.4 -110.52 L -17.4 -110.52 L -35.23 -101.7 L -35.23 -101.7 L -53.5 -92.66 L -53.5 -92.66 L -53.5 -92.66 L -72.22 -83.39 L -73.13 -105.56 L -35.66 -123.54 L -35.66 -123.54 L -35.66 -123.54 L -17.61 -132.21 L -17.61 -132.21 L -17.61 -132.21 L 0 -140.66 L 0 -140.66 zM 54.51 -125.87 L 33.59 -135.75 L 65.65 -151.62 L 64.92 -131.18 z" fill="none" stroke="black" id="10|0|0||0" stroke-width="0.35mm"></path><path d="M -17.19 -148.91 L 0 -140.66 L -17.61 -132.21 L -17.61 -132.21 L -17.61 -132.21 L -35.66 -123.54 L -35.66 -123.54 L -35.66 -123.54 L -73.13 -105.56 L -73.13 -105.56 L -90.27 -114.66 L -90.27 -114.66 L -90.27 -114.66 L -123.3 -132.21 L -123.3 -132.21 L -139.22 -140.66 L -139.22 -140.66 L -83.98 -164.85 L -83.98 -164.85 L -66.41 -172.54 L -17.2 -148.91 zM -85.98 -148.91 L -104.41 -140.66 L -71.33 -123.54 L -34.8 -140.66 L -51.59 -148.91 L -51.59 -148.91 L -51.59 -148.91 L -67.97 -156.97 L -85.98 -148.91 z" fill="none" stroke="black" id="0|10|0||7" stroke-width="0.35mm"></path><path d="M 67.18 -77.57 L 34.39 -59.57 L 34.39 -59.57 L 34.39 -59.57 L 34.39 -59.57 L 33.99 -39.24 L 17.2 -29.78 L 17.2 -29.78 L 17.2 -29.78 L 17.19 -29.78 L 17.2 -29.78 L 17.19 -29.78 L 16.99 -9.81 L 0 0 L 0 0 L 0 0 L 0 0 L 0 19.62 L -17.2 29.78 L -17.2 29.78 L -17.2 29.78 L -16.99 49.05 L -16.99 49.05 L -70.46 81.36 L -71.33 61.77 L -71.33 61.77 L -71.33 61.77 L -72.22 41.7 L -72.22 41.7 L -72.22 41.7 L -73.13 21.11 L -73.13 21.11 L -73.13 21.11 L -74.07 0 L -74.07 0 L -74.07 0 L -76.02 -43.89 L -18.28 -73.89 L -18.28 -73.89 L 35.23 -101.7 L 35.23 -101.7 L 35.23 -101.7 L 68.78 -119.13 L 68.78 -119.13 z" fill="none" stroke="black" id="10|0|0||2" stroke-width="0.35mm"></path><path d="M 74.07 0 L 70.46 81.36 L 70.46 81.36 L 34.39 59.57 L 34.39 59.57 L 34.8 40.19 L 34.8 40.19 L 34.8 40.19 L 17.2 29.78 L 17.2 29.78 L 17.19 29.78 L 17.19 29.78 L 0 19.62 L 0 0 L 0 0 L 0 0 L 0 0 L 35.23 20.34 L 36.11 -20.85 L 36.11 -20.85 L 36.11 -20.85 L 74.07 0 z" fill="none" stroke="black" id="0|0|10||2" stroke-width="0.35mm"></path><path d="M 17.19 29.78 L 17.2 29.78 L 17.2 29.78 L 34.8 40.19 L 34.8 40.19 L 34.8 40.19 L 34.8 40.19 L 17.61 50.85 L 17.61 50.85 L 0 40.19 L 0 40.19 L -17.2 29.78 L 0 19.62 L 0 19.62 L 17.19 29.78 z" fill="none" stroke="black" id="0|10|0||1" stroke-width="0.35mm"></path><path d="M 51.59 -29.78 L 36.11 -20.85 L 36.11 -20.85 L 36.08 -19.39 L 34.8 -20.09 L 34.8 -20.09 L 17.19 -29.78 L 17.2 -29.78 L 17.2 -29.78 L 17.2 -29.78 L 33.99 -39.24 L 33.99 -39.24 z" fill="none" stroke="black" id="0|10|0||3" stroke-width="0.35mm"></path><path d="M 0 40.19 L 17.61 50.85 L 17.61 50.85 L 17.4 70.33 L 17.4 70.33 L -16.99 49.05 L -17.2 29.78 L -17.2 29.78 L 0 40.19 z" fill="none" stroke="black" id="0|0|10||3" stroke-width="0.35mm"></path><path d="M 51.59 -29.78 L 33.99 -39.24 L 34.39 -59.57 L 34.39 -59.57 L 70.46 -40.68 z" fill="none" stroke="black" id="0|0|10||0" stroke-width="0.35mm"></path><path d="M -123.3 -132.21 L -90.27 -114.66 L -90.27 -114.66 L -90.27 -114.66 L -73.13 -105.56 L -73.13 -105.56 L -72.22 -83.39 L -72.22 -83.39 L -89.16 -92.66 L -89.16 -92.66 L -89.16 -92.66 L -89.16 -92.66 L -89.16 -92.66 L -105.69 -101.7 L -105.69 -101.7 L -105.69 -101.7 L -105.69 -101.7 L -121.82 -110.52 L -121.82 -110.52 L -121.82 -110.52 L -121.82 -110.52 L -137.56 -119.13 L -139.22 -140.66 L -139.22 -140.66 L -139.22 -140.66 L -139.22 -140.66 L -123.3 -132.21 z" fill="none" stroke="black" id="0|0|10||4" stroke-width="0.35mm"></path><path d="M 34.39 59.57 L 17.4 70.33 L 17.61 50.85 L 34.8 40.19 L 34.39 59.57 z" fill="none" stroke="black" id="10|0|0||4" stroke-width="0.35mm"></path></g><g inkscape:label="Shading" inkscape:groupmode="layer" id="shading_layer"><path d=" M-22.1,-164.27L-28.32,-170.5 M-28.42,-176.25L-14.47,-162.3 M-10.6,-164.09L-28.51,-182 M-28.61,-187.75L-6.73,-165.88 M-2.86,-167.66L-28.7,-193.5 M-28.8,-199.26L-2,-172.46 M-2,-178.11L-28.89,-205.01 M-27,-208.77L-2,-183.77 M-2,-189.43L-23.03,-210.46 M-19.05,-212.14L-2,-195.08 M-2,-200.74L-15.08,-213.82 M-11.11,-215.5L-2,-206.4 M-2,-212.05L-7.13,-217.19 M-3.16,-218.87L-2,-217.71 M136.49,-79.22L137.35,-78.36 M148.21,-73.16L136.9,-84.47 M2,-225.03L4.29,-222.73 M137.3,-89.72L159.07,-67.95 M169.93,-62.75L137.71,-94.98 M14.1,-218.58L2,-230.68 M2,-236.34L23.91,-214.43 M138.11,-100.23L170.74,-67.6 M171.25,-72.74L138.52,-105.48 M33.72,-210.27L2,-242 M2,-247.65L43.53,-206.12 M138.92,-110.73L171.77,-77.89 M172.28,-83.03L139.32,-115.99 M53.35,-201.96L2,-253.31 M2,-258.97L63.16,-197.81 M139.73,-121.24L172.79,-88.18 M173.3,-93.32L140.13,-126.49 M72.97,-193.66L5.66,-260.96 M14.99,-257.29L82.78,-189.5 M140.54,-131.74L173.81,-98.47 M174.33,-103.61L140.94,-137 M92.59,-185.35L24.32,-253.62 M33.65,-249.94L102.4,-181.2 M141.35,-142.25L174.84,-108.76 M175.35,-113.9L141.75,-147.5 M112.21,-177.04L42.98,-246.27 M52.31,-242.6L122.02,-172.89 M142.16,-152.75L175.86,-119.05 M176.37,-124.19L142.56,-158.01 M131.83,-168.74L61.64,-238.92 M70.97,-235.25L141.64,-164.58 M142.87,-163.35L176.89,-129.33 M177.4,-134.48L80.3,-231.58 M89.63,-227.91L177.91,-139.62 M178.42,-144.77L98.96,-224.23 M108.29,-220.56L178.94,-149.91 M179.45,-155.06L117.62,-216.89 M126.95,-213.22L179.96,-160.2 M180.47,-165.35L136.27,-209.54 M145.6,-205.87L180.98,-170.49 M181.5,-175.64L154.93,-202.2 M164.26,-198.53L182.01,-180.78 M182.52,-185.93L173.59,-194.86 M182.92,-191.18L183.03,-191.07" stroke="black" stroke-width="0.5"></path><path d=" M28.47,-179.12L22.61,-173.27 M16.76,-175.91L28.61,-187.75 M28.75,-196.38L2.53,-170.15 M2,-178.11L28.89,-205.01 M25.02,-209.62L2,-186.6 M2,-195.08L19.06,-212.14 M13.09,-214.66L2,-203.57 M2,-212.05L7.13,-217.19 M-4.29,-222.73L-2,-225.02 M-2,-233.51L-19.01,-216.5 M-33.72,-210.27L-2,-242 M-2,-250.48L-48.44,-204.04 M-141.35,-119.61L-139.73,-121.24 M-63.15,-197.81L-2,-258.97 M-10.33,-259.12L-77.87,-191.58 M-140.34,-129.12L-156.83,-112.62 M-172.31,-105.62L-140.94,-136.99 M-92.59,-185.35L-24.32,-253.62 M-38.32,-248.11L-107.3,-179.12 M-141.55,-144.87L-175.09,-111.33 M-175.86,-119.05L-142.16,-152.75 M-122.02,-172.89L-52.31,-242.6 M-66.3,-237.09L-136.73,-166.66 M-142.76,-160.63L-176.63,-126.76 M-177.4,-134.48L-80.3,-231.58 M-94.29,-226.07L-178.17,-142.2 M-178.94,-149.91L-108.29,-220.56 M-122.28,-215.05L-179.7,-157.63 M-180.47,-165.35L-136.27,-209.55 M-150.27,-204.04L-181.24,-173.06 M-182.01,-180.78L-164.26,-198.53 M-178.26,-193.02L-182.78,-188.5" stroke="black" stroke-width="0.5"></path><path d=" M41.02,-60.93L41.02,-58.35 M41.02,-21.38L41.02,-20.43 M49.02,-16.04L49.02,-25.99 M49.02,-54.16L49.02,-65.32 M57.02,-69.71L57.02,-49.97 M57.02,-30.61L57.02,-11.64 M65.02,-7.25L65.02,-35.23 M65.02,-45.78L65.02,-74.11 M73.02,-134.43L73.02,-129.61 M73.02,-96.45L73.02,-2.86 M81.02,-6.57L81.02,-100.73 M81.02,-125.89L81.02,-130.75 M89.02,-127.08L89.02,-11.44 M97.02,-16.31L97.02,-123.4 M105.02,-119.73L105.02,-21.18 M113.02,-26.05L113.02,-116.05 M121.02,-112.37L121.02,-30.91 M129.02,-35.78L129.02,-108.7 M137.02,-74.08L137.02,-40.65 M145.02,-45.52L145.02,-70.25 M153.02,-66.42L153.02,-50.39 M161.02,-55.26L161.02,-62.58" stroke="black" stroke-width="0.5"></path><path d=" M-170.61,-102L-170.61,-100.81 M-162.61,-96.19L-162.61,-105.62 M-154.61,-109.23L-154.61,-91.57 M-146.61,-86.95L-146.61,-112.85 M-138.61,-116.46L-138.61,-82.34 M-130.61,-77.72L-130.61,-113.05 M-130.61,-146.61L-130.61,-149.75 M-122.61,-153.21L-122.61,-150.12 M-122.61,-108.67L-122.61,-73.1 M-114.61,-68.48L-114.61,-104.3 M-114.61,-153.62L-114.61,-156.67 M-106.61,-160.14L-106.61,-157.12 M-106.61,-99.92L-106.61,-63.86 M-98.61,-59.24L-98.61,-95.55 M-98.61,-160.62L-98.61,-163.6 M-90.61,-167.07L-90.61,-164.12 M-90.61,-91.17L-90.61,-54.62 M-82.61,-50L-82.61,-86.8 M-82.61,-167.63L-82.61,-170.53 M-74.61,-173.99L-74.61,-171.13 M-74.61,-82.42L-74.61,-46.88 M-66.61,-51.03L-66.61,-83.94 M-66.61,-174.54L-66.61,-177.46 M-58.61,-177.1L-58.61,-171.01 M-58.61,-87.9L-58.61,-55.19 M-50.61,-59.35L-50.61,-91.86 M-50.61,-167.17L-50.61,-173.32 M-42.61,-169.54L-42.61,-163.33 M-42.61,-95.81L-42.61,-63.51 M-34.61,-67.66L-34.61,-99.77 M-34.61,-159.49L-34.61,-165.76 M-26.61,-161.98L-26.61,-155.65 M-26.61,-103.73L-26.61,-71.82 M-18.61,-75.98L-18.61,-107.69 M-18.61,-151.81L-18.61,-158.2 M-10.61,-159.68L-10.61,-147.97 M-10.61,-111.65L-10.61,-80.13 M-2.61,-84.29L-2.61,-115.61 M-2.61,-144.13L-2.61,-163.38 M5.39,-167.07L5.39,-88.45 M13.39,-92.6L13.39,-170.77 M21.39,-169.43L21.39,-96.76 M29.39,-100.92L29.39,-165.81 M37.39,-162.2L37.39,-139.87 M37.39,-131.75L37.39,-105.08 M45.39,-109.23L45.39,-127.97 M45.39,-143.83L45.39,-158.58 M53.39,-154.97L53.39,-147.78 M53.39,-124.19L53.39,-113.39 M61.39,-117.55L61.39,-120.41" stroke="black" stroke-width="0.5"></path><path d=" M-209.32,-209.11L-209.32,-206.99 M-201.32,-202.91L-201.32,-212.12 M-193.32,-215.13L-193.32,-198.83 M-185.32,-194.76L-185.32,-218.14 M-177.32,-221.16L-177.32,-197.69 M-169.32,-200.84L-169.32,-224.17 M-161.32,-227.18L-161.32,-203.99 M-153.32,-207.13L-153.32,-230.19 M-145.32,-233.21L-145.32,-210.28 M-137.32,-213.43L-137.32,-236.22 M-129.32,-239.23L-129.32,-216.58 M-121.32,-219.73L-121.32,-242.24 M-113.32,-245.25L-113.32,-222.88 M-105.32,-226.03L-105.32,-248.27 M-97.32,-251.28L-97.32,-229.18 M-89.32,-232.33L-89.32,-254.29 M-81.32,-257.3L-81.32,-235.48 M-73.32,-238.63L-73.32,-260.32 M-65.32,-263.33L-65.32,-241.78 M-57.32,-244.93L-57.32,-266.34 M-49.32,-269.35L-49.32,-248.07 M-41.32,-251.22L-41.32,-272.37 M-33.32,-275.38L-33.32,-254.37 M-25.32,-257.52L-25.32,-278.39 M-17.32,-281.4L-17.32,-260.67 M-9.32,-263.82L-9.32,-284.41 M-1.32,-287.43L-1.32,-266.97 M6.68,-264.86L6.68,-285.41 M14.68,-282.39L14.68,-261.71 M22.68,-258.56L22.68,-279.38 M30.68,-276.37L30.68,-255.41 M38.68,-252.26L38.68,-273.36 M46.68,-270.35L46.68,-249.11 M54.68,-245.96L54.68,-267.33 M62.68,-264.32L62.68,-242.81 M70.68,-239.66L70.68,-261.31 M78.68,-258.3L78.68,-236.52 M86.68,-233.37L86.68,-255.28 M94.68,-252.27L94.68,-230.22 M102.68,-227.07L102.68,-249.26 M110.68,-246.25L110.68,-223.92 M118.68,-220.77L118.68,-243.24 M126.68,-240.22L126.68,-217.62 M134.68,-214.47L134.68,-237.21 M142.68,-234.2L142.68,-211.32 M150.68,-208.17L150.68,-231.19 M158.68,-228.17L158.68,-205.02 M166.68,-201.87L166.68,-225.16 M174.68,-222.15L174.68,-198.73 M182.68,-195.58L182.68,-219.14 M190.68,-216.12L190.68,-197.49 M198.68,-201.57L198.68,-213.11 M206.68,-210.1L206.68,-205.64" stroke="black" stroke-width="0.5"></path><path d=" M-143.23,-5.99L-143.23,-12.57 M-135.23,-16.7L-135.23,-0.88 M-127.23,4.22L-127.23,-20.82 M8.77,-2.76L8.77,2.75 M16.77,7.37L16.77,-7.37 M24.77,-3.13L24.77,11.99 M32.77,16.61L32.77,1.38" stroke="black" stroke-width="0.5"></path><path d=" M-126.56,-27.19L-129.69,-24.05 M-147.22,-15.01L-130.33,-31.9 M-135.61,-35.11L-151.76,-18.95 M-152.47,-26.73L-140.88,-38.32 M-146.16,-41.53L-153.18,-34.51 M-153.89,-42.28L-151.43,-44.74 M-69.62,-126.56L-68.87,-127.3 M-69.17,-135.48L-76.29,-128.36 M-81.88,-131.26L-69.48,-143.66 M-69.78,-151.84L-87.48,-134.15 M-93.07,-137.04L-81.29,-148.82 M-96.65,-141.94L-98.66,-139.94" stroke="black" stroke-width="0.5"></path><path d=" M19.02,-12.5L22.54,-8.98 M33.74,-3.44L19.08,-18.1 M19.13,-23.7L33.86,-8.98 M33.97,-14.52L25.63,-22.86 M-64.98,-130.44L-63.81,-129.27 M-59.96,-131.08L-65.2,-136.32 M-65.42,-142.2L-56.11,-132.89 M-52.26,-134.69L-65.64,-148.07 M-65.38,-153.47L-48.41,-136.5 M-44.55,-138.3L-54.25,-148 M-43.12,-142.52L-40.7,-140.11" stroke="black" stroke-width="0.5"></path><path d=" M-190.89,-2.76L-186.45,1.69 M-169.5,12.97L-191.63,-9.15 M-192.37,-15.55L-152.56,24.26 M-135.61,35.55L-193.11,-21.94 M-193.85,-28.34L-118.67,46.84 M-101.72,58.13L-194.58,-34.73 M-195.32,-41.13L-84.78,69.42 M-72.71,75.83L-196.06,-47.52 M-196.8,-53.92L-155.17,-12.29 M-145.7,-2.82L-72.97,69.91 M-73.23,63.99L-130.07,7.15 M-155.74,-18.52L-197.54,-60.32 M-198.28,-66.71L-156.31,-24.74 M-120.17,11.39L-73.49,58.07 M-73.76,52.15L-120.12,5.78 M-156.87,-30.96L-199.01,-73.11 M-199.75,-79.5L-157.44,-37.19 M-120.57,-0.32L-74.02,46.23 M-74.28,40.31L-121.02,-6.43 M-158.01,-43.41L-200.49,-85.9 M-201.23,-92.29L-158.57,-49.64 M-121.47,-12.53L-74.55,34.39 M-74.81,28.47L-121.92,-18.64 M-154.67,-51.39L-201.97,-98.69 M-202.71,-105.08L-140.22,-42.6 M-122.37,-24.74L-75.07,22.55 M-75.34,16.63L-122.82,-30.85 M-125.77,-33.8L-203.45,-111.48 M-204.18,-117.87L-75.6,10.71 M-75.86,4.79L-204.92,-124.27 M-205.66,-130.66L-178.32,-103.32 M-171.98,-96.98L-76.12,-1.13 M-76.39,-7.05L-158.6,-89.26 M-178.94,-109.6L-206.4,-137.06 M-207.14,-143.45L-179.57,-115.88 M-145.21,-81.53L-76.65,-12.97 M-76.91,-18.89L-131.83,-73.8 M-180.19,-122.17L-207.88,-149.85 M-208.61,-156.25L-180.82,-128.45 M-118.44,-66.07L-77.17,-24.81 M-77.44,-30.73L-105.06,-58.35 M-181.44,-134.73L-209.35,-162.64 M-210.09,-169.04L-182.07,-141.01 M-91.68,-50.62L-77.7,-36.64 M-77.96,-42.56L-78.29,-42.89 M-182.69,-147.3L-210.83,-175.43 M-211.57,-181.83L-183.32,-153.58 M-183.94,-159.86L-212.31,-188.22 M-213.05,-194.62L-184.57,-166.14 M-185.2,-172.42L-213.78,-201.01 M-209.92,-202.8L-185.82,-178.71 M-186.45,-184.99L-198.38,-196.93" stroke="black" stroke-width="0.5"></path><path d=" M70.06,-100.24L79.44,-109.63 M79.85,-118.53L70.4,-109.07" stroke="black" stroke-width="0.5"></path><path d=" M60.86,-125.09L60.86,-126.86 M68.86,-127.14L68.86,-121.31 M76.86,-122.73L76.86,-123.41" stroke="black" stroke-width="0.5"></path><path d=" M186.45,1.69L190.89,-2.76 M192,-12.35L161.03,18.62 M135.61,35.55L193.11,-21.94 M194.21,-31.54L110.19,52.49 M84.77,69.42L195.32,-41.13 M196.43,-50.72L72.84,72.87 M73.23,63.99L197.54,-60.32 M198.65,-69.91L73.63,55.11 M74.02,46.23L199.75,-79.5 M200.86,-89.09L174.25,-62.49 M164.39,-52.62L74.41,37.35 M74.81,28.47L142.71,-39.43 M175.19,-71.91L201.97,-98.69 M203.08,-108.28L176.13,-81.33 M121.03,-26.24L75.2,19.59 M75.6,10.71L99.36,-13.05 M177.07,-90.76L204.18,-117.87 M205.29,-127.47L178,-100.18 M77.68,0.15L75.99,1.83 M178.94,-109.6L206.4,-137.06 M207.51,-146.65L179.88,-119.03 M180.82,-128.45L208.61,-156.25 M209.72,-165.84L181.76,-137.87 M182.69,-147.3L210.83,-175.43 M211.94,-185.02L183.63,-156.72 M184.57,-166.14L213.05,-194.62 M214.15,-204.21L185.51,-175.57 M186.45,-184.99L198.38,-196.93" stroke="black" stroke-width="0.5"></path><path d=" M59.95,-130.89L63.02,-133.96 M63.33,-142.76L50.53,-129.96 M44.77,-132.69L57.38,-145.3 M40.59,-136.98L39.01,-135.41 M-2,-128.34L-17.77,-112.57 M-34.57,-104.26L-2,-136.83 M-17.08,-130.23L-51.37,-95.94 M-68.17,-87.63L-33.37,-122.43 M-49.69,-114.6L-70.64,-93.64 M-70.98,-101.79L-66,-106.76" stroke="black" stroke-width="0.5"></path><path d=" M-128.14,-137.04L-128.14,-143.33 M-120.14,-146.83L-120.14,-132.79 M-112.14,-128.55L-112.14,-150.33 M-104.14,-153.83L-104.14,-142.97 M-104.14,-138.27L-104.14,-124.3 M-96.14,-120.05L-96.14,-134.13 M-96.14,-146.55L-96.14,-157.33 M-88.14,-160.84L-88.14,-150.13 M-88.14,-129.99L-88.14,-115.8 M-80.14,-111.55L-80.14,-125.85 M-80.14,-153.72L-80.14,-164.34 M-72.14,-167.84L-72.14,-157.3 M-72.14,-121.71L-72.14,-108.25 M-64.14,-112.09L-64.14,-124.7 M-64.14,-157.32L-64.14,-169.23 M-56.14,-165.39L-56.14,-153.39 M-56.14,-128.45L-56.14,-115.93 M-48.14,-119.77L-48.14,-132.2 M-48.14,-149.45L-48.14,-161.55 M-40.14,-157.71L-40.14,-145.52 M-40.14,-135.95L-40.14,-123.61 M-32.14,-127.45L-32.14,-153.87 M-24.14,-150.03L-24.14,-131.29 M-16.14,-135.13L-16.14,-146.19 M-8.14,-142.35L-8.14,-138.97" stroke="black" stroke-width="0.5"></path><path d=" M-32.87,56.31L-19.06,42.5 M-2,16.96L-5.73,20.68 M-19.15,34.11L-54.31,69.26 M-68.73,75.2L-2,8.47 M15.07,-17.08L0.7,-2.71 M-2.03,0.01L-69.09,67.08 M-69.45,58.95L15.15,-25.65 M27.24,-37.74L32.05,-42.55 M65.44,-84.43L53.18,-72.17 M32.22,-51.21L-69.81,50.83 M-70.17,42.7L32.4,-59.87 M34.36,-61.83L65.78,-93.25 M66.12,-102.08L-70.53,34.58 M-70.89,26.45L66.46,-110.9 M58.73,-111.65L-71.26,18.33 M-71.62,10.21L41.07,-102.48 M23.4,-93.3L-71.98,2.08 M-72.34,-6.04L5.74,-84.12 M-11.93,-74.94L-72.7,-14.17 M-73.06,-22.29L-29.59,-65.76 M-47.25,-56.58L-73.42,-30.42 M-73.78,-38.54L-64.92,-47.41" stroke="black" stroke-width="0.5"></path><path d=" M44.17,63.14L36.48,55.45 M2,15.31L9.75,23.06 M36.6,49.91L58.46,71.78 M68.68,76.33L36.72,44.37 M23.58,31.23L2,9.65 M2,4L68.92,70.92 M69.16,65.5L14.12,10.46 M27.51,18.19L69.4,60.08 M69.64,54.67L36.75,21.78 M37.31,16.68L69.88,49.25 M70.12,43.84L37.43,11.14 M37.54,5.6L70.36,38.42 M70.6,33L37.66,0.06 M37.78,-5.48L70.84,27.59 M71.09,22.17L37.9,-11.01 M38.02,-16.55L71.33,16.75 M71.57,11.34L48.43,-11.8 M60.97,-4.91L71.81,5.92" stroke="black" stroke-width="0.5"></path><path d=" M-11.19,28.56L-11.19,31.08 M-3.19,35.92L-3.19,23.83 M4.81,24.78L4.81,40.76 M12.81,45.6L12.81,29.51 M20.81,34.24L20.81,46.52 M28.81,41.56L28.81,38.97" stroke="black" stroke-width="0.5"></path><path d=" M29.21,-25.46L29.21,-34.26 M37.21,-35.24L37.21,-23.79 M45.21,-28.41L45.21,-30.94" stroke="black" stroke-width="0.5"></path><path d=" M-15.06,42.33L-0.47,56.92 M14.36,66.1L-15.12,36.61 M-9,37.08L15.5,61.58 M15.56,55.98L5.33,45.75" stroke="black" stroke-width="0.5"></path><path d=" M36.08,-43.94L43.76,-36.26 M52.85,-32.82L36.19,-49.49 M36.3,-55.03L56.44,-34.9 M60.03,-36.97L45.5,-51.49 M57.38,-45.27L63.61,-39.04" stroke="black" stroke-width="0.5"></path><path d=" M-135.73,-121.37L-133.6,-119.25 M-121.17,-112.47L-136.2,-127.5 M-136.67,-133.63L-108.63,-105.59 M-96.14,-98.76L-131.89,-134.5 M-119.82,-128.09L-83.66,-91.93 M-74.43,-88.35L-107.76,-121.69 M-95.69,-115.28L-74.67,-94.25 M-74.91,-100.15L-83.63,-108.87" stroke="black" stroke-width="0.5"></path><path d=" M32.47,56.03L25.94,62.56 M19.51,60.5L32.65,47.36" stroke="black" stroke-width="0.5"></path></g></svg>