<svg viewBox="-646 -464 1292 928" width="1292" height="928" style="background-color: rgb(170, 170, 170);"><defs></defs><g inkscape:label="Outline" inkscape:groupmode="layer" id="outline_layer"><path d="M 50.97 -298.02 L 170.22 -299.34 L 187.55 -297.35 L 183.48 -188.47 L 191.26 -188.27 L 187.62 -94.89 L 335.76 -86.59 L 331.15 -20.59 L 310.66 17.39 L 281.63 14.8 L 272.6 165.84 L 261.36 191.26 L 102.18 167.97 L 101 220.68 L 52.53 285.73 L -8.88 274.11 L -8.94 244.12 L -152.61 218.43 L -157.66 69.49 L -142 61.04 L -143.45 13.42 L -155.14 12.22 L -154.86 20.61 L -186.73 35.36 L -267.4 26.28 L -270.86 -34.52 L -244.75 -42.73 L -252.46 -192.84 L -216.51 -196.5 L -133.84 -194.34 L -118.77 -196.14 L -32.59 -193.95 L -32.78 -222.95 L -75.14 -223.59 L -76.82 -333.92 L -10.09 -335.56 L 51.26 -326.5 zM -71 118.52 L -70.55 147.49 L 25.93 161.78 L 26.03 143.97 L -55.9 132.34 L -56.31 99.01 L -58.21 98.76 L -58.08 109.23 zM 3.27 -95.59 L 3.21 4.77 L 96.73 13.6 L 97.53 -25.08 L 88.07 -25.85 L 89.27 -90.49 L 98.96 -95.03 L 38.46 -98.52 L 27.39 -94.16 zM -145.6 -57.2 L -146.73 -94.22 L -102.5 -106.65 L -102.79 -120.02 L -104.42 -119.6 L -159.58 -122.53 L -157.46 -58.11 zM 60.12 -197.82 L 93.52 -197.05 L 93.98 -221.03 L 50.2 -221.69 L 49.94 -196.11 z" fill="none" stroke="black" id="outline" stroke-width="0.65mm"></path></g><g inkscape:label="Edges" inkscape:groupmode="layer" id="edges_layer"><path d="M -244.75 -42.73 L -270.86 -34.52 L -244.21 -32.13 L -252.46 -192.84 L -166.46 -190.44 L -105.91 -188.75 L -104.42 -119.61 L -193.08 -124.3 L -186.72 35.36 L -154.86 20.61 L -159.58 -122.53 M -186.72 35.36 L -267.4 26.28 L -270.86 -34.52 M -104.42 -119.61 L -89.21 -123.52 L 68.73 -115.42 L 92.14 -124.33 M 68.73 -115.42 L 69.74 -186.51 L 80.73 -188.72 L 93.42 -191.27 M 69.74 -186.51 L 3.49 -188.3 L -28.52 -189.17 L -59.83 -190.01 L -90.45 -190.84 L -89.21 -123.52 M -90.45 -190.84 L -105.91 -188.75 M -252.46 -192.84 L -216.51 -196.5 L -133.84 -194.33 L -118.77 -196.14 L 27.93 -192.42 L 28.12 -222.03 M 27.93 -192.42 L 35.53 -193.69 L 39.23 -194.31 L 60.12 -197.83 L 93.53 -197.05 M -145.22 -44.82 L -157.05 -45.79 M -157.46 -58.11 L -145.6 -57.2 M 3.27 -95.59 L 3.21 4.77 L 96.74 13.6 M 3.21 4.77 L -7.7 11.18 L -19.13 17.9 L 37.49 23.55 L 26.68 30.89 L 26.51 61.14 L 86.33 67.92 L 180.86 78.62 L 180.46 88.87 M 180.86 78.62 L 173.15 88.01 L 192.8 90.3 M 86.33 67.92 L 86.9 37.07 L 96.41 29.43 M 86.9 37.07 L 26.68 30.89 M -19.13 17.9 L -31.13 24.95 L -59.18 22.07 M -31.13 24.95 L -31.53 -35.58 L -19.37 -41.23 L -19.6 -96.95 M -19.37 -41.23 L -47.2 -43.43 L -59.93 -37.89 L -31.53 -35.58 M -59.93 -37.89 L -58.08 109.23 L -71 118.52 L -70.55 147.49 L -79.46 154.39 L -91.02 163.33 L -98.2 168.89 L -100.19 76.62 L -85.68 67.81 L -114.13 64.39 L -142 61.04 L -146.73 -94.22 L -88.6 -90.55 L -85.68 67.81 M -88.6 -90.55 L -47.79 -103.49 L -47.2 -43.43 M -47.79 -103.49 L -102.5 -106.65 L -102.79 -120.02 M -102.5 -106.65 L -146.73 -94.22 M -142 61.04 L -157.66 69.49 L -100.19 76.62 M -157.66 69.49 L -152.61 218.43 L -8.94 244.12 L -8.88 274.11 L 52.53 285.73 L 101 220.68 L 102.18 167.96 M 52.53 285.73 L 53.63 192.77 L -98.2 168.89 M 53.63 192.77 L 74.85 169.03 L -70.55 147.49 M 74.85 169.03 L 74.36 198.98 L 84.12 187.33 L 84.77 152.3 M 84.12 187.33 L 74.57 185.86 M 38.61 -116.96 L 38.46 -98.52 L 27.39 -94.16 L 27.52 -117.53 M 27.39 -94.16 L -31.95 -97.69 L -32.1 -120.59 M 38.46 -98.52 L 98.97 -95.03 L 102.1 -94.85 M 98.97 -95.03 L 89.27 -90.49 L 101.99 -89.73 M 89.27 -90.49 L 88.07 -25.85 L 100.61 -24.83 M 50.19 -221.7 L 49.94 -196.11 M 50.97 -298.02 L 51.26 -326.5 L -10.09 -335.56 L -10.02 -297.34 L 170.22 -299.34 L 187.55 -297.35 L 183.39 -186.04 L 191.26 -188.27 L 183.48 -188.47 M 191.26 -188.27 L 187.22 -84.67 L 186.35 -62.24 L 184.63 -18 L 197.27 -16.97 M 187.22 -84.67 L 221.33 -82.65 L 256.22 -80.57 L 250.23 -75.22 L 214.41 -77.41 L 199.31 -65.99 L 191.86 112.83 L 87.88 99.94 L 86.63 165.69 L 261.36 191.26 L 271.59 13.9 L 310.66 17.39 L 331.15 -20.59 L 335.76 -86.59 L 187.62 -94.89 M 335.76 -86.59 L 315.67 -58.39 L 199.31 -65.99 M 315.67 -58.39 L 310.66 17.39 M 261.36 191.26 L 272.6 165.84 L 281.64 14.8 M 87.88 99.94 L 98.18 89.91 L 34.24 82.22 L 3.3 78.5 L -26.99 74.86 L -56.64 71.3 L -30.94 54.64 L -19.01 46.92 L 8.84 49.98 L 26.56 51.93 M -56.64 71.3 L -55.9 132.34 L 86.88 152.6 M 170.22 -299.34 L 163.64 -105.4 L 91.86 -109.2 L 93.98 -221.04 L -75.14 -223.59 L -76.82 -333.92 L -10.09 -335.56 M 163.64 -105.4 L 172.43 -110.1 L 166.2 64.52 L 98.88 57.17 L 102.39 -108.65 M 166.2 64.52 L 182.1 46.85 L 189.43 38.71 L 188.17 69.71 L 187.37 89.67 M -56.31 99.01 L -58.21 98.76 M 95.6 68.96 L 97.53 -25.08 M 25.93 161.78 L 26.04 143.97 M -143.45 13.42 L -155.14 12.21 M -32.58 -193.95 L -32.78 -222.95 " fill="none" stroke="black" stroke-width="0.35mm"></path></g><g inkscape:label="Polygons" inkscape:groupmode="layer" id="polygons_layer" style="display:none"><path d="M -270.86 -34.51 L -270.86 -34.51 L -270.86 -34.51 L -244.75 -42.73 L -244.21 -32.13 zM -31.53 -35.58 L -59.93 -37.89 L -59.93 -37.89 L -47.2 -43.43 L -19.37 -41.23 zM -19.37 -41.23 L -19.37 -41.23 L -19.37 -41.23 zM -145.22 -44.82 L -157.05 -45.79 L -157.46 -58.11 L -145.6 -57.2 z" fill="none" stroke="black" id="0|10|0||-8" stroke-width="0.35mm"></path><path d="M 3.21 4.77 L 3.21 4.77 L -7.7 11.18 L -7.7 11.18 L -19.13 17.9 L -19.13 17.9 L -19.13 17.9 L -31.13 24.95 L -31.13 24.95 L -31.13 24.95 L -31.13 24.95 L -31.53 -35.58 L -31.53 -35.58 L -19.37 -41.23 L -19.37 -41.23 L -19.6 -96.95 L 3.27 -95.59 z" fill="none" stroke="black" id="0|0|-10||-10" stroke-width="0.35mm"></path><path d="M 27.39 -94.16 L 27.39 -94.16 L 27.39 -94.16 zM 27.39 -94.16 L 27.39 -94.16 L 27.39 -94.16 zM 38.46 -98.52 L 38.46 -98.52 L 38.46 -98.52 L 38.46 -98.52 L 27.39 -94.16 L 27.52 -117.53 L 38.61 -116.96 zM 49.93 -196.11 L 39.23 -194.31 L 39.23 -194.31 L 35.53 -193.69 L 35.53 -193.69 L 35.53 -193.69 L 27.95 -192.41 L 27.95 -192.41 L 28.12 -222.03 L 50.19 -221.7 zM 16.51 -331.63 L 51.26 -326.5 L 50.97 -298.02 L -10.02 -297.34 L -10.1 -335.56 L -10.1 -335.56 L 16.51 -331.63 z" fill="none" stroke="black" id="0|0|-10||-6" stroke-width="0.35mm"></path><path d="M 26.68 30.89 L 26.56 51.93 L 8.84 49.98 L 8.84 49.98 L 8.84 49.98 L -19.01 46.92 L -30.94 54.64 L -30.94 54.64 L -30.94 54.64 L -56.64 71.3 L -56.31 99.01 L -58.21 98.76 L -59.18 22.07 L -31.13 24.95 L -31.13 24.95 L -19.13 17.9 L -19.13 17.9 L 37.49 23.55 zM 98.88 57.17 L 166.2 64.52 L 166.2 64.52 L 166.2 64.52 L 166.2 64.52 L 182.1 46.85 L 182.1 46.85 L 182.1 46.85 L 189.43 38.71 L 189.43 38.71 L 188.17 69.71 L 188.17 69.71 L 188.17 69.71 L 187.37 89.67 L 180.46 88.87 L 180.86 78.62 L 95.6 68.96 L 95.79 59.54 L 95.79 59.54 L 95.79 59.54 L 96.41 29.43 L 96.41 29.43 L 97.53 -25.08 L 100.61 -24.83 zM -31.95 -97.69 L -31.95 -97.69 L -19.6 -96.95 L -19.37 -41.23 L -47.2 -43.43 L -47.79 -103.49 L -47.79 -103.49 L -47.79 -103.49 L -47.79 -103.49 L -102.5 -106.65 L -102.79 -120.02 L -89.21 -123.52 L -32.1 -120.59 zM 102.39 -108.65 L 102.1 -94.85 L 98.97 -95.03 L 98.97 -95.03 L 38.46 -98.52 L 38.46 -98.52 L 38.46 -98.52 L 38.61 -116.96 L 68.73 -115.42 L 68.73 -115.42 L 92.14 -124.33 L 91.86 -109.2 z" fill="none" stroke="black" id="10|0|0||2" stroke-width="0.35mm"></path><path d="M 96.41 29.43 L 86.9 37.07 L 26.68 30.89 L 37.49 23.55 L -19.13 17.9 L -19.13 17.9 L -7.7 11.18 L -7.7 11.18 L 3.21 4.77 L 96.74 13.6 zM 26.68 30.89 L 26.68 30.89 L 26.68 30.89 z" fill="none" stroke="black" id="0|10|0||-12" stroke-width="0.35mm"></path><path d="" fill="none" stroke="black" id="0|10|0||0" stroke-width="0.35mm"></path><path d="M 84.12 187.33 L 74.57 185.86 L 74.85 169.02 L 74.85 169.02 L 25.93 161.78 L 26.04 143.97 L 84.77 152.3 zM 86.9 37.07 L 86.33 67.92 L 86.33 67.92 L 86.33 67.92 L 26.51 61.14 L 26.51 61.14 L 26.68 30.89 L 26.68 30.89 L 26.68 30.89 L 26.68 30.89 L 26.68 30.89 L 86.9 37.07 zM -31.53 -35.58 L -31.53 -35.58 L -31.53 -35.58 L -31.13 24.95 L -31.13 24.95 L -59.18 22.07 L -59.93 -37.89 L -31.53 -35.58 zM -143.45 13.42 L -155.14 12.21 L -157.05 -45.79 L -145.22 -44.82 zM 221.33 -82.65 L 221.33 -82.65 L 256.22 -80.57 L 250.23 -75.22 L 214.41 -77.41 L 214.41 -77.41 L 199.31 -65.99 L 197.27 -16.97 L 184.63 -18 L 186.35 -62.24 L 186.35 -62.24 L 187.22 -84.67 L 187.22 -84.67 L 221.33 -82.65 zM 100.61 -24.83 L 88.07 -25.85 L 88.07 -25.85 L 88.07 -25.85 L 88.07 -25.85 L 89.27 -90.49 L 89.27 -90.49 L 101.99 -89.73 zM 27.39 -94.16 L 27.39 -94.16 L 27.39 -94.16 L -31.95 -97.69 L -31.95 -97.69 L -32.1 -120.59 L 27.52 -117.53 zM 27.39 -94.16 L 27.39 -94.16 L 27.39 -94.16 zM -9.87 -222.6 L 28.12 -222.03 L 27.95 -192.42 L 27.93 -192.42 L -12.69 -193.45 L -12.69 -193.45 L -12.69 -193.45 L -32.58 -193.95 L -32.78 -222.95 L -9.87 -222.6 z" fill="none" stroke="black" id="10|0|0||4" stroke-width="0.35mm"></path><path d="" fill="none" stroke="black" id="0|0|-10||-20" stroke-width="0.35mm"></path><path d="M 52.53 285.73 L 52.53 285.73 L 52.53 285.73 zM 86.63 165.69 L 102.18 167.96 L 101 220.68 L 101 220.68 L 83.05 244.76 L 83.05 244.76 L 83.05 244.76 L 52.53 285.73 L 53.63 192.77 L 74.85 169.03 L 74.36 198.98 L 84.12 187.33 L 84.77 152.3 L 86.88 152.6 zM 96.41 29.43 L 95.79 59.54 L 95.79 59.54 L 95.6 68.96 L 86.33 67.92 L 86.9 37.07 L 86.9 37.07 L 96.41 29.43 L 96.41 29.43 zM 89.88 -123.47 L 89.88 -123.47 L 68.73 -115.42 L 69.23 -150.71 L 69.23 -150.71 L 69.23 -150.71 L 69.74 -186.51 L 69.74 -186.51 L 80.73 -188.72 L 80.73 -188.72 L 80.73 -188.72 L 93.42 -191.27 L 92.14 -124.33 zM 91.13 -190.81 L 91.13 -190.81 L 91.13 -190.81 z" fill="none" stroke="black" id="0|0|-10||-2" stroke-width="0.35mm"></path><path d="M 8.84 49.98 L 8.84 49.98 L 26.56 51.93 L 26.51 61.14 L 26.51 61.14 L 86.33 67.92 L 86.33 67.92 L 86.33 67.92 L 180.86 78.62 L 173.15 88.01 L 192.8 90.3 L 191.86 112.83 L 156.4 108.43 L 156.4 108.43 L 156.4 108.43 L 87.88 99.94 L 98.18 89.91 L 65.87 86.02 L 65.87 86.02 L 34.25 82.22 L 34.24 82.22 L 34.24 82.22 L 3.3 78.5 L 3.3 78.5 L 3.3 78.5 L -26.99 74.86 L -26.99 74.86 L -26.99 74.86 L -56.64 71.3 L -30.94 54.64 L -30.94 54.64 L -30.94 54.64 L -19.01 46.92 L 8.84 49.98 zM 156.4 108.43 L 156.4 108.43 L 156.4 108.43 zM 121.75 104.14 L 121.75 104.14 L 121.75 104.14 zM -114.13 64.39 L -114.13 64.39 L -85.69 67.81 L -100.19 76.62 L -157.66 69.49 L -142 61.04 L -114.13 64.39 zM -129.22 73.02 L -129.22 73.02 L -129.22 73.02 z" fill="none" stroke="black" id="0|10|0||-14" stroke-width="0.35mm"></path><path d="M -47.79 -103.49 L -47.79 -103.49 L -47.2 -43.43 L -47.2 -43.43 L -59.93 -37.89 L -58.08 109.23 L -71 118.52 L -70.55 147.49 L -79.46 154.39 L -79.46 154.39 L -91.02 163.33 L -91.02 163.33 L -91.02 163.33 L -98.2 168.89 L -98.2 168.89 L -100.19 76.62 L -100.19 76.62 L -100.19 76.62 L -85.69 67.81 L -85.68 67.81 L -88.6 -90.55 L -60.71 -99.39 L -60.71 -99.39 L -47.79 -103.49 L -47.79 -103.49 zM -89.21 -123.52 L -89.21 -123.52 L -104.42 -119.61 L -104.42 -119.61 L -104.42 -119.61 L -105.91 -188.75 L -105.91 -188.75 L -90.45 -190.84 L -90.45 -190.84 z" fill="none" stroke="black" id="0|0|-10||-12" stroke-width="0.35mm"></path><path d="M 335.76 -86.59 L 332.19 -81.58 L 332.19 -81.58 L 332.19 -81.58 L 328.42 -76.29 L 328.42 -76.29 L 328.42 -76.29 L 324.42 -70.68 L 324.42 -70.68 L 324.42 -70.68 L 315.67 -58.39 L 199.31 -65.99 L 214.41 -77.41 L 214.41 -77.41 L 250.23 -75.22 L 256.22 -80.57 L 221.33 -82.65 L 221.33 -82.65 L 221.33 -82.65 L 187.22 -84.67 L 187.22 -84.67 L 187.62 -94.89 L 335.76 -86.59 zM 199.31 -65.99 L 199.31 -65.99 L 199.31 -65.99 zM 199.31 -65.99 L 199.31 -65.99 L 199.31 -65.99 zM 101.99 -89.73 L 89.27 -90.49 L 98.97 -95.03 L 102.1 -94.85 zM 89.27 -90.49 L 89.27 -90.49 L 89.27 -90.49 zM -60.71 -99.39 L -60.71 -99.39 L -60.71 -99.39 L -88.6 -90.55 L -88.6 -90.55 L -117.97 -92.4 L -146.73 -94.22 L -102.5 -106.65 L -47.79 -103.49 zM -117.97 -92.4 L -117.97 -92.4 L -117.97 -92.4 zM -117.97 -92.4 L -117.97 -92.4 L -117.97 -92.4 zM -47.79 -103.49 L -47.79 -103.49 L -47.79 -103.49 zM -47.79 -103.49 L -47.79 -103.49 L -47.79 -103.49 z" fill="none" stroke="black" id="0|10|0||-4" stroke-width="0.35mm"></path><path d="M 183.39 -186.04 L 191.26 -188.27 L 191.26 -188.27 L 187.22 -84.67 L 187.22 -84.67 L 186.35 -62.24 L 186.35 -62.24 L 184.63 -18 L 197.27 -16.97 L 192.8 90.3 L 187.37 89.67 L 188.17 69.71 L 188.17 69.71 L 188.17 69.71 L 189.43 38.71 L 189.43 38.71 L 182.1 46.85 L 182.1 46.85 L 182.1 46.85 L 166.2 64.52 L 172.43 -110.1 L 163.64 -105.4 L 170.22 -299.34 L 187.55 -297.35 zM 180.46 88.87 L 173.15 88.01 L 180.86 78.62 L 180.86 78.62 zM 166.2 64.52 L 166.2 64.52 L 166.2 64.52 zM 163.64 -105.4 L 163.64 -105.4 L 163.64 -105.4 zM 163.64 -105.4 L 163.64 -105.4 L 163.64 -105.4 z" fill="none" stroke="black" id="0|0|-10||4" stroke-width="0.35mm"></path><path d="M -154.87 20.61 L -154.87 20.61 L -186.72 35.36 L -189.22 -27.23 L -189.22 -27.23 L -193.08 -124.3 L -159.58 -122.53 z" fill="none" stroke="black" id="0|0|-10||-18" stroke-width="0.35mm"></path><path d="M 74.85 169.02 L 74.85 169.03 L 74.85 169.03 L 53.63 192.77 L 53.63 192.77 L -9.06 182.91 L -9.06 182.91 L -9.06 182.91 L -39.41 178.14 L -39.41 178.13 L -98.2 168.89 L -98.2 168.89 L -98.2 168.89 L -91.02 163.33 L -91.02 163.33 L -91.02 163.33 L -79.46 154.39 L -79.46 154.39 L -70.55 147.49 L -70.55 147.49 L 74.85 169.02 zM -69.11 173.46 L -69.11 173.46 L -69.11 173.46 z" fill="none" stroke="black" id="0|10|0||-20" stroke-width="0.35mm"></path><path d="M 84.12 187.33 L 74.36 198.98 L 74.57 185.86 L 84.12 187.33 z" fill="none" stroke="black" id="0|10|0||-22" stroke-width="0.35mm"></path><path d="" fill="none" stroke="black" id="0|0|-10||2" stroke-width="0.35mm"></path><path d="M -100.19 76.62 L -100.19 76.62 L -98.2 168.89 L -69.11 173.46 L -69.11 173.46 L -69.11 173.46 L -39.41 178.13 L -39.41 178.14 L -9.06 182.91 L -9.06 182.91 L -9.06 182.91 L 53.63 192.77 L 52.53 285.73 L 52.53 285.73 L 52.53 285.73 L 52.53 285.73 L 52.53 285.73 L -8.88 274.11 L -8.88 274.11 L -8.94 244.12 L -152.61 218.43 L -157.66 69.49 L -157.66 69.49 L -100.19 76.62 zM 315.67 -58.39 L 315.67 -58.39 L 315.67 -58.39 L 315.67 -58.39 L 310.66 17.39 L 310.66 17.39 L 271.59 13.9 L 263.35 156.87 L 263.35 156.87 L 263.35 156.87 L 261.36 191.26 L 119.99 170.57 L 86.63 165.69 L 87.88 99.94 L 87.88 99.94 L 156.4 108.43 L 156.4 108.43 L 156.4 108.43 L 191.86 112.83 L 199.31 -65.99 L 199.31 -65.99 L 199.31 -65.99 L 199.31 -65.99 zM 265.36 121.95 L 265.36 121.95 L 265.36 121.95 zM 265.36 121.95 L 265.36 121.95 L 265.36 121.95 zM 156.4 108.43 L 156.4 108.43 L 156.4 108.43 zM 121.75 104.14 L 121.75 104.14 L 121.75 104.14 zM -166.46 -190.44 L -166.46 -190.44 L -136.52 -189.6 L -136.52 -189.6 L -105.91 -188.75 L -104.42 -119.61 L -104.42 -119.61 L -104.42 -119.61 L -104.42 -119.61 L -104.42 -119.61 L -193.08 -124.3 L -186.72 35.36 L -186.72 35.36 L -267.4 26.28 L -267.4 26.28 L -267.4 26.28 L -267.4 26.28 L -270.86 -34.51 L -270.86 -34.51 L -244.21 -32.13 L -252.46 -192.84 L -166.46 -190.44 zM -10.02 -297.34 L 170.22 -299.34 L 170.22 -299.34 L 163.64 -105.4 L 163.64 -105.4 L 163.64 -105.4 L 163.64 -105.4 L 91.86 -109.2 L 93.98 -221.04 L -75.14 -223.59 L -76.82 -333.92 L -76.82 -333.92 L -76.82 -333.92 L -10.1 -335.56 L -10.1 -335.56 z" fill="none" stroke="black" id="10|0|0||10" stroke-width="0.35mm"></path><path d="M 183.39 -186.04 L 183.48 -188.47 L 191.26 -188.27 zM 93.42 -191.27 L 80.73 -188.72 L 80.73 -188.72 L 80.73 -188.72 L 69.74 -186.51 L 3.49 -188.3 L 3.49 -188.3 L 3.49 -188.3 L -28.52 -189.17 L -28.52 -189.17 L -28.52 -189.17 L -59.83 -190.01 L -59.83 -190.01 L -59.83 -190.01 L -90.45 -190.84 L -105.91 -188.75 L -166.46 -190.44 L -166.46 -190.44 L -166.46 -190.44 L -252.46 -192.84 L -216.51 -196.5 L -133.84 -194.33 L -118.77 -196.14 L -12.69 -193.45 L -12.69 -193.45 L -12.69 -193.45 L 27.93 -192.42 L 27.95 -192.41 L 35.53 -193.69 L 35.53 -193.69 L 35.53 -193.69 L 39.23 -194.31 L 39.23 -194.31 L 49.93 -196.11 L 49.93 -196.11 L 60.12 -197.83 L 93.53 -197.05 zM 191.26 -188.27 L 191.26 -188.27 L 191.26 -188.27 zM 91.13 -190.81 L 91.13 -190.81 L 91.13 -190.81 zM 91.13 -190.81 L 91.13 -190.81 L 91.13 -190.81 z" fill="none" stroke="black" id="0|10|0||2" stroke-width="0.35mm"></path><path d="M -26.99 74.86 L -26.99 74.86 L 3.3 78.5 L 3.3 78.5 L 3.3 78.5 L 34.24 82.22 L 34.24 82.22 L 34.25 82.22 L 65.87 86.02 L 65.87 86.02 L 98.18 89.91 L 87.88 99.94 L 86.88 152.6 L -55.9 132.34 L -56.64 71.3 L -26.99 74.86 zM -117.97 -92.4 L -117.97 -92.4 L -88.6 -90.55 L -86.25 36.98 L -85.68 67.81 L -114.13 64.39 L -114.13 64.39 L -114.13 64.39 L -114.13 64.39 L -142 61.04 L -142 61.04 L -146.73 -94.22 L -146.73 -94.22 L -117.97 -92.4 zM 166.2 64.52 L 166.2 64.52 L 166.2 64.52 L 98.88 57.17 L 101.75 -78.52 L 101.75 -78.52 L 102.39 -108.65 L 127.32 -107.33 L 127.32 -107.33 L 163.64 -105.4 L 163.64 -105.4 L 163.64 -105.4 L 172.43 -110.1 L 166.2 64.52 zM -117.97 -92.4 L -117.97 -92.4 L -117.97 -92.4 zM -59.83 -190.01 L -59.83 -190.01 L -28.52 -189.17 L -28.52 -189.17 L -28.52 -189.17 L 3.49 -188.3 L 3.49 -188.3 L 3.49 -188.3 L 69.74 -186.51 L 69.74 -186.51 L 69.74 -186.51 L 68.73 -115.42 L 68.73 -115.42 L -28.12 -120.39 L -89.21 -123.52 L -89.21 -123.52 L -90.45 -190.84 L -90.45 -190.84 L -59.83 -190.01 z" fill="none" stroke="black" id="10|0|0||8" stroke-width="0.35mm"></path><path d="M 331.15 -20.59 L 323.65 -6.69 L 323.65 -6.69 L 310.66 17.39 L 315.67 -58.39 L 315.67 -58.39 L 324.42 -70.68 L 324.42 -70.68 L 324.42 -70.68 L 328.42 -76.29 L 328.42 -76.29 L 328.42 -76.29 L 332.19 -81.58 L 332.19 -81.58 L 332.19 -81.58 L 335.76 -86.59 L 331.15 -20.59 zM 335.76 -86.59 L 335.76 -86.59 L 335.76 -86.59 z" fill="none" stroke="black" id="0|0|-10||12" stroke-width="0.35mm"></path><path d="M 272.6 165.84 L 272.6 165.84 L 267.14 178.18 L 267.14 178.18 L 267.14 178.18 L 261.36 191.26 L 261.36 191.26 L 261.36 191.26 L 263.35 156.87 L 263.35 156.87 L 263.35 156.87 L 271.59 13.9 L 281.64 14.8 zM 265.36 121.95 L 265.36 121.95 L 265.36 121.95 zM 265.36 121.95 L 265.36 121.95 L 265.36 121.95 z" fill="none" stroke="black" id="0|0|-10||10" stroke-width="0.35mm"></path></g><g inkscape:label="Shading" inkscape:groupmode="layer" id="shading_layer"><path d=" M-150.74,-47.28L-155.32,-53.81 M-47.18,-38.86L-48.47,-40.7" stroke="black" stroke-width="0.5"></path><path d=" M-29.17,19.54L-27.95,20.76 M-24.38,18.66L-29.21,13.84 M-29.24,8.15L-20.82,16.57 M-17.26,14.48L-29.28,2.45 M-29.32,-3.24L-13.69,12.38 M-10.13,10.29L-29.36,-8.94 M-29.4,-14.63L-6.57,8.19 M-3.01,6.1L-29.43,-20.33 M-29.47,-26.02L0.56,4.01 M1.21,-1L-29.51,-31.72 M-27.42,-35.28L1.21,-6.65 M1.22,-12.3L-23.56,-37.08 M-19.7,-38.88L1.22,-17.96 M1.23,-23.61L-17.38,-42.21 M-17.4,-47.89L1.23,-29.26 M1.23,-34.92L-17.42,-53.57 M-17.45,-59.25L1.24,-40.57 M1.24,-46.22L-17.47,-64.93 M-17.49,-70.61L1.24,-51.87 M1.25,-57.53L-17.51,-76.29 M-17.54,-81.97L1.25,-63.18 M1.26,-68.83L-17.56,-87.65 M-17.58,-93.33L1.26,-74.49 M1.26,-80.14L-13.16,-94.57 M-7.15,-94.21L1.27,-85.79 M1.27,-91.45L-1.14,-93.85" stroke="black" stroke-width="0.5"></path><path d=" M29.42,-99.51L31.14,-97.79 M35.2,-99.39L29.45,-105.14 M29.48,-110.76L36.5,-103.74 M36.55,-109.35L30.53,-115.37 M36.49,-115.07L36.59,-114.97 M30.27,-194.83L29.96,-195.13 M30,-200.76L35.11,-195.65 M39.95,-196.46L30.03,-206.38 M30.06,-212.01L44.79,-197.28 M47.97,-199.75L30.09,-217.63 M33.43,-219.95L48.03,-205.35 M48.09,-210.95L39.18,-219.86 M44.92,-219.78L48.14,-216.55 M-6.4,-299.38L-8.03,-301.01 M-8.04,-306.68L-0.8,-299.44 M4.79,-299.5L-8.05,-312.34 M-8.06,-318.01L10.39,-299.56 M15.98,-299.63L-8.07,-323.68 M-8.08,-329.35L21.58,-299.69 M27.17,-299.75L-6.01,-332.93 M0.62,-331.95L32.76,-299.81 M38.36,-299.88L7.26,-330.97 M13.9,-329.99L43.95,-299.94 M48.99,-300.55L20.53,-329.01 M27.17,-328.03L49.05,-306.15 M49.11,-311.75L33.81,-327.05 M40.45,-326.07L49.17,-317.35 M49.22,-322.95L47.08,-325.09" stroke="black" stroke-width="0.5"></path><path d=" M186,74.07L182.55,77.51 M170.49,75.43L186.59,59.33 M187.19,44.59L183.55,48.23 M165.35,66.44L157.79,73.99 M145.09,72.55L152.59,65.04 M139.84,63.65L132.38,71.12 M119.68,69.68L127.09,62.26 M114.34,60.87L106.97,68.24 M97.71,63.36L101.59,59.48 M24.64,37.44L13.59,48.49 M0.85,47.09L23.75,24.19 M10.89,22.9L-11.89,45.69 M-35.69,55.34L-1.97,21.62 M-14.83,20.34L-56.67,62.18 M-56.85,48.22L-35.18,26.55 M88.97,-97.61L98.23,-106.86 M89.92,-112.7L75.6,-98.38 M-48.01,25.23L-57.03,34.25 M62.23,-99.15L81.05,-117.97 M62.67,-113.73L48.86,-99.92 M-21.77,-43.43L-21.38,-43.82 M40.52,-105.72L49.21,-114.42 M-21.44,-57.91L-34.88,-44.46 M-45.25,-48.24L-21.5,-71.99 M-21.55,-86.08L-45.39,-62.24 M-45.52,-76.25L-26.42,-95.35 M-33.97,-101.94L-45.66,-90.25 M-45.85,-104.2L-34.07,-115.99 M-44.95,-119.25L-58.11,-106.09 M-71.48,-106.86L-58.4,-119.94 M-71.86,-120.63L-84.85,-107.63 M-98.22,-108.4L-85.31,-121.32" stroke="black" stroke-width="0.5"></path><path d=" M-9.46,14.53L-7.71,17.03 M18.54,19.65L9.98,7.42 M36.12,9.89L51.18,31.39 M77.49,34.1L62.26,12.36 M88.41,14.82L94.53,23.57" stroke="black" stroke-width="0.5"></path><path d="" stroke="black" stroke-width="0.5"></path><path d=" M82.24,180.43L78.27,184.4 M76.81,171.72L82.51,166.02 M80.65,153.74L68.35,166.04 M56.03,164.22L68.27,151.98 M55.88,150.22L43.71,162.39 M31.4,160.57L43.5,148.47 M31.11,146.71L28,149.82 M186.83,-23.15L195.9,-32.22 M241.44,-77.76L243.03,-79.35 M229.68,-80.15L228.11,-78.58 M196.51,-46.98L187.4,-37.86 M84.38,65.16L83.91,65.63 M71.2,64.19L84.65,50.75 M187.97,-52.58L197.13,-61.73 M214.79,-79.39L216.33,-80.94 M202.98,-81.73L188.55,-67.29 M82.61,38.64L58.5,62.75 M45.8,61.31L69.78,37.33 M189.12,-82.01L189.64,-82.52 M56.96,36.01L33.09,59.88 M28.57,50.26L44.13,34.69 M98.81,-34.13L92.2,-27.52 M31.31,33.37L28.65,36.04 M90.33,-39.79L99.12,-48.58 M99.42,-63.02L90.59,-54.19 M90.86,-68.6L99.73,-77.47 M96.19,-88.07L91.13,-83.01 M-33.21,13.04L-41.99,21.83 M-54.82,20.51L-33.31,-1.01 M-33.4,-15.05L-57.35,8.89 M-57.52,-5.07L-33.49,-29.1 M25.43,-102.17L19.88,-96.61 M-42.29,-34.45L-57.7,-19.04 M-57.87,-33.01L-55.37,-35.51 M6.53,-97.41L24.79,-115.67 M11.34,-116.36L-6.82,-98.2 M-20.17,-98.99L-2.11,-117.05 M-15.57,-117.74L-29.98,-103.32 M-153.35,5.9L-145.91,-1.54 M-30.08,-117.37L-29.02,-118.43 M-146.32,-15.27L-153.8,-7.79 M-154.25,-21.48L-146.74,-28.99 M18.91,-194.64L26,-201.73 M26.08,-215.96L5.12,-194.99 M-147.16,-42.71L-154.7,-35.17 M-8.67,-195.34L16.19,-220.21 M2.26,-220.42L-22.46,-195.69 M-30.64,-201.67L-11.67,-220.63 M-25.6,-220.84L-30.73,-215.71" stroke="black" stroke-width="0.5"></path><path d="" stroke="black" stroke-width="0.5"></path><path d=" M54.61,279.09L54.82,279.31 M57.24,276.06L54.67,273.5 M54.74,267.91L59.65,272.82 M62.07,269.58L54.81,262.32 M54.87,256.73L64.48,266.34 M66.9,263.1L54.94,251.14 M55,245.55L69.31,259.86 M71.73,256.62L55.07,239.96 M55.14,234.37L74.14,253.37 M76.56,250.13L55.2,228.78 M55.27,223.19L78.97,246.89 M81.39,243.65L55.34,217.6 M55.4,212.01L83.8,240.41 M86.22,237.17L55.47,206.42 M55.53,200.82L88.63,233.92 M91.05,230.68L55.6,195.23 M57.48,191.46L93.46,227.44 M95.88,224.2L60.15,188.47 M62.82,185.49L72.42,195.09 M76.67,199.33L98.29,220.96 M99.1,216.11L79.25,196.26 M72.51,189.52L65.49,182.5 M68.16,179.51L72.61,183.96 M81.83,193.18L99.22,210.57 M99.35,205.04L84.4,190.1 M72.7,178.39L70.83,176.52 M86.14,186.17L99.47,199.51 M99.6,193.98L86.24,180.62 M86.34,175.07L99.72,188.44 M99.84,182.91L86.45,169.51 M90.93,168.34L99.97,177.38 M100.09,171.84L97.56,169.31 M88.4,63.99L90.83,66.41 M93.71,63.64L88.51,58.43 M88.61,52.88L93.82,58.09 M93.94,52.55L88.71,47.33 M88.82,41.77L94.05,47.01 M94.16,41.46L89.92,37.22 M93.05,34.7L94.28,35.92 M70.84,-123.28L74.4,-119.72 M78.5,-121.28L70.92,-128.86 M71,-134.44L82.6,-122.84 M86.69,-124.4L71.08,-140.02 M71.16,-145.59L90.19,-126.56 M90.29,-132.11L71.23,-151.17 M71.31,-156.75L90.4,-137.67 M90.5,-143.22L71.39,-162.33 M71.47,-167.9L90.61,-148.77 M90.71,-154.32L71.55,-173.48 M71.63,-179.06L90.82,-159.87 M90.92,-165.42L71.71,-184.64 M76.23,-185.78L91.03,-170.97 M91.14,-176.52L81.05,-186.61 M85.65,-187.67L91.24,-182.08 M91.35,-187.63L90.36,-188.62" stroke="black" stroke-width="0.5"></path><path d=" M-135.52,70.22L-140.4,63.25 M-113.75,66.45L-108.78,73.54 M-36.85,71.66L-42.06,64.23 M-25.26,53.35L-10.19,74.87 M16.47,78.07L-2.68,50.72 M23.77,53.63L24.54,54.73 M30.78,63.64L43.13,81.28 M69.79,84.48L57.3,66.64 M83.81,69.64L96.44,87.68 M99.24,91.67L105.11,100.06 M131.85,103.37L110.33,72.65 M136.85,75.65L158.58,106.69 M185.32,110.01L163.37,78.65" stroke="black" stroke-width="0.5"></path><path d=" M-93.31,162.58L-96.4,159.49 M-96.52,153.71L-90.13,160.11 M-86.94,157.64L-96.65,147.93 M-96.77,142.15L-83.75,155.17 M-80.56,152.71L-96.9,136.37 M-97.02,130.58L-77.37,150.24 M-74.18,147.77L-97.15,124.8 M-97.27,119.02L-72.61,143.68 M-72.7,137.94L-97.4,113.24 M-97.52,107.46L-72.79,132.19 M-72.88,126.45L-97.65,101.68 M-97.77,95.9L-72.97,120.7 M-71.56,116.45L-97.9,90.11 M-98.02,84.33L-68.27,114.09 M-64.98,111.72L-98.15,78.55 M-95.14,75.89L-61.68,109.35 M-60.13,105.25L-91.62,73.76 M-88.11,71.62L-60.21,99.52 M-60.28,93.79L-84.59,69.48 M-83.74,64.67L-60.35,88.06 M-60.42,82.33L-83.85,58.91 M-83.95,53.14L-60.49,76.6 M-60.57,70.88L-84.06,47.38 M-84.17,41.62L-60.64,65.15 M-60.71,59.42L-84.27,35.85 M-84.38,30.09L-60.78,53.69 M-60.85,47.96L-84.48,24.33 M-84.59,18.57L-60.93,42.23 M-61,36.5L-84.7,12.8 M-84.8,7.04L-61.07,30.77 M-61.14,25.04L-84.91,1.28 M-85.02,-4.49L-61.21,19.31 M-61.29,13.59L-85.12,-10.25 M-85.23,-16.01L-61.36,7.86 M-61.43,2.13L-85.33,-21.77 M-85.44,-27.54L-61.5,-3.6 M-61.58,-9.33L-85.55,-33.3 M-85.65,-39.06L-61.65,-15.06 M-61.72,-20.79L-85.76,-44.83 M-85.86,-50.59L-61.79,-26.52 M-61.86,-32.25L-85.97,-56.35 M-86.08,-62.11L-61.94,-37.98 M-58.85,-40.54L-86.18,-67.88 M-86.29,-73.64L-54.91,-42.26 M-50.96,-43.97L-86.39,-79.4 M-86.5,-85.17L-49.24,-47.91 M-49.3,-53.62L-85.2,-89.53 M-80.91,-90.89L-49.36,-59.34 M-49.41,-65.05L-76.61,-92.25 M-102.51,-123.8L-101.2,-122.5 M-72.32,-93.61L-49.47,-70.76 M-49.53,-76.48L-68.02,-94.98 M-96.7,-123.65L-102.63,-129.58 M-102.76,-135.37L-92.2,-124.81 M-63.73,-96.34L-49.58,-82.19 M-49.64,-87.9L-59.44,-97.7 M-91.32,-129.58L-102.88,-141.15 M-103.01,-146.93L-91.42,-135.35 M-55.14,-99.06L-49.7,-93.62 M-49.75,-99.33L-50.85,-100.43 M-91.53,-141.11L-103.13,-152.71 M-103.26,-158.49L-91.64,-146.87 M-91.74,-152.63L-103.38,-164.27 M-103.51,-170.05L-91.85,-158.4 M-91.95,-164.16L-103.63,-175.84 M-103.75,-181.62L-92.06,-169.92 M-92.17,-175.69L-103.53,-187.05 M-98.55,-187.73L-92.27,-181.45 M-92.38,-187.21L-93.57,-188.4" stroke="black" stroke-width="0.5"></path><path d=" M-130.68,-96.65L-129.63,-95.14 M-104.08,-93.53L-110.28,-102.38 M-86.81,-103.74L-80.78,-95.12 M-60.8,-101.46L-61.37,-102.27 M207.14,-67.48L206.26,-68.74 M193.99,-86.27L189.53,-92.63 M214.84,-91.36L219.46,-84.76 M226.53,-74.67L232.73,-65.81 M258.31,-64.14L251.59,-73.75 M244.93,-83.25L240.25,-89.94 M265.66,-88.52L283.9,-62.47 M309.48,-60.8L291.07,-87.09 M316.49,-85.67L324.5,-74.23" stroke="black" stroke-width="0.5"></path><path d=" M178.58,85.89L177.98,85.29 M190.94,86.94L189.54,85.53 M168.41,58.75L168.56,58.9 M189.76,80.1L191.17,81.51 M191.39,76.08L189.98,74.66 M171.24,55.93L168.6,53.29 M168.8,47.83L173.92,52.95 M190.2,69.22L191.62,70.65 M191.84,65.21L190.42,63.79 M176.6,49.97L168.99,42.37 M169.19,36.9L179.28,47 M190.64,58.35L192.07,59.78 M192.3,54.35L190.86,52.91 M181.96,44.02L169.38,31.44 M169.58,25.98L184.64,41.04 M191.08,47.48L192.52,48.92 M192.75,43.49L191.3,42.04 M187.32,38.06L169.77,20.52 M169.97,15.06L192.97,38.06 M193.2,32.63L170.16,9.59 M170.36,4.13L193.43,27.2 M193.65,21.77L170.55,-1.33 M170.75,-6.79L193.88,16.34 M194.1,10.91L170.94,-12.25 M171.14,-17.72L194.33,5.47 M194.56,0.04L171.33,-23.18 M171.53,-28.64L182.61,-17.56 M184.14,-16.03L194.78,-5.39 M195.01,-10.82L190.3,-15.53 M182.82,-23.01L171.72,-34.1 M171.92,-39.56L183.03,-28.45 M183.24,-33.9L172.11,-45.03 M172.31,-50.49L183.46,-39.34 M183.67,-44.79L172.5,-55.95 M172.7,-61.41L183.88,-50.23 M184.09,-55.68L172.89,-66.88 M173.09,-72.34L184.3,-61.12 M184.51,-66.57L173.28,-77.8 M173.48,-83.26L184.73,-72.01 M184.94,-77.46L173.67,-88.72 M173.87,-94.19L185.15,-82.9 M185.36,-88.34L174.06,-99.65 M165.92,-113.45L168.89,-110.47 M174.26,-105.11L185.58,-93.79 M185.79,-99.23L174.45,-110.57 M172.78,-112.24L166.1,-118.92 M166.29,-124.39L186,-104.68 M186.21,-110.12L166.47,-129.86 M166.66,-135.33L186.42,-115.57 M186.64,-121.01L166.85,-140.8 M167.03,-146.27L186.85,-126.46 M187.06,-131.9L167.22,-151.75 M167.4,-157.22L187.27,-137.35 M187.48,-142.79L167.59,-162.69 M167.77,-168.16L187.7,-148.24 M187.91,-153.68L167.96,-173.63 M168.14,-179.1L188.12,-159.13 M188.33,-164.57L168.33,-184.58 M168.51,-190.05L188.54,-170.02 M188.76,-175.46L168.7,-195.52 M168.88,-200.99L181.48,-188.4 M185.36,-184.52L188.97,-180.91 M181.68,-193.85L169.07,-206.46 M169.26,-211.93L181.88,-199.3 M182.09,-204.76L169.44,-217.4 M169.63,-222.88L182.29,-210.21 M182.5,-215.66L169.81,-228.35 M170,-233.82L182.7,-221.12 M182.9,-226.57L170.18,-239.29 M170.37,-244.76L183.11,-232.02 M183.31,-237.48L170.55,-250.23 M170.74,-255.7L183.51,-242.93 M183.72,-248.38L170.92,-261.18 M171.11,-266.65L183.92,-253.83 M184.13,-259.29L171.3,-272.12 M171.48,-277.59L184.33,-264.74 M184.53,-270.19L171.67,-283.06 M171.85,-288.53L184.74,-275.65 M184.94,-281.1L172.04,-294 M174.91,-296.79L185.14,-286.55 M185.35,-292.01L181.3,-296.05" stroke="black" stroke-width="0.5"></path><path d=" M-184.97,29.2L-182.82,31.35 M-178.95,29.56L-185.2,23.31 M-185.44,17.42L-175.09,27.77 M-171.22,25.98L-185.67,11.52 M-185.91,5.63L-167.35,24.19 M-163.49,22.4L-186.14,-0.26 M-186.38,-6.15L-159.62,20.61 M-156.97,17.6L-186.61,-12.04 M-186.85,-17.93L-157.16,11.75 M-157.35,5.9L-187.08,-23.83 M-187.31,-29.72L-157.54,0.05 M-157.74,-5.79L-187.55,-35.61 M-187.78,-41.5L-157.93,-11.64 M-158.12,-17.49L-188.02,-47.39 M-188.25,-53.28L-158.31,-23.34 M-158.51,-29.19L-188.49,-59.17 M-188.72,-65.07L-158.7,-35.04 M-158.89,-40.89L-188.96,-70.96 M-189.19,-76.85L-159.08,-46.74 M-159.28,-52.59L-189.43,-82.74 M-189.66,-88.63L-159.47,-58.44 M-159.66,-64.29L-189.9,-94.52 M-190.13,-100.41L-159.85,-70.14 M-160.05,-75.99L-190.37,-106.31 M-190.6,-112.2L-160.24,-81.84 M-160.43,-87.69L-190.83,-118.09 M-189.18,-122.09L-160.63,-93.54 M-160.82,-99.39L-183.21,-121.78 M-177.24,-121.46L-161.01,-105.24 M-161.2,-111.09L-171.26,-121.14 M-165.29,-120.83L-161.4,-116.93" stroke="black" stroke-width="0.5"></path><path d=" M-91.65,166.35L-90.43,168.08 M-62.99,172.4L-75.81,154.09 M-52.76,152.15L-35.55,176.72 M-8.12,181.03L-25.52,156.18 M1.72,160.22L19.32,185.35 M46.76,189.66L28.96,164.25 M56.2,168.29L63.51,178.72" stroke="black" stroke-width="0.5"></path><path d="" stroke="black" stroke-width="0.5"></path><path d="" stroke="black" stroke-width="0.5"></path><path d=" M260.15,177.57L250.12,187.59 M237.78,185.79L261.01,162.56 M261.88,147.55L225.45,183.98 M213.11,182.18L262.74,132.54 M263.61,117.54L200.77,180.37 M188.44,178.57L264.48,102.53 M265.34,87.52L176.1,176.76 M163.77,174.96L266.21,72.51 M267.07,57.51L151.43,173.15 M50.67,273.91L42.74,281.84 M30.85,279.59L50.84,259.6 M139.09,171.34L267.94,42.5 M296.33,14.1L309.76,0.67 M310.76,-14.47L283.35,12.95 M268.8,27.49L194.32,101.98 M182.6,113.7L126.76,169.54 M51.01,245.29L18.96,277.34 M7.06,275.09L51.18,230.98 M114.42,167.73L170.01,112.14 M194.93,87.22L311.76,-29.61 M312.76,-44.75L195.55,72.46 M157.25,110.76L102.08,165.93 M51.35,216.66L-4.83,272.84 M-6.91,260.77L51.52,202.35 M89.75,164.12L144.85,109.02 M196.16,57.71L310.59,-56.72 M297.31,-57.59L196.77,42.95 M132.27,107.46L88.91,150.81 M46.11,193.61L-6.93,246.66 M-15.35,240.94L33.89,191.69 M89.19,136.4L119.69,105.9 M197.39,28.2L284.04,-58.45 M270.76,-59.32L198,13.44 M107.1,104.34L89.46,121.98 M21.67,189.77L-27.35,238.79 M-39.35,236.65L9.45,187.85 M89.74,107.56L94.52,102.78 M198.62,-1.32L257.49,-60.19 M244.21,-61.05L199.23,-16.07 M-2.77,185.92L-51.35,234.5 M-63.34,232.36L-14.99,184 M199.84,-30.83L230.93,-61.92 M217.66,-62.79L200.46,-45.59 M-27.21,182.08L-75.34,230.21 M-87.34,228.07L-39.43,180.16 M201.07,-60.34L204.38,-63.65 M-51.65,178.23L-99.34,225.92 M-111.33,223.78L-63.87,176.31 M-76.08,174.39L-123.33,221.64 M-135.33,219.49L-88.3,172.47 M-99.93,169.95L-147.33,217.35 M-151,206.88L-100.47,156.35 M162.15,-120.42L149.87,-108.13 M-100.77,142.5L-151.46,193.2 M-151.93,179.52L-101.07,128.66 M136.44,-108.84L162.65,-135.05 M163.14,-149.69L123.01,-109.56 M-101.36,114.82L-152.39,165.84 M-152.86,152.16L-101.66,100.97 M109.58,-110.27L163.64,-164.33 M164.14,-178.97L96.15,-110.98 M-101.96,87.13L-153.32,138.49 M-153.78,124.81L-106.79,77.81 M94.12,-123.1L164.63,-193.61 M165.13,-208.25L94.39,-137.51 M-119.37,76.25L-154.25,111.13 M-154.71,97.45L-131.95,74.69 M94.67,-151.93L165.62,-222.88 M166.12,-237.52L94.94,-166.34 M-144.54,73.13L-155.17,83.77 M95.22,-180.76L166.62,-252.16 M167.11,-266.8L95.49,-195.18 M95.76,-209.59L167.61,-281.44 M168.1,-296.07L94.95,-222.92 M81.12,-223.23L155.06,-297.17 M140.76,-297.01L67.19,-223.44 M-188.84,32.58L-189.31,33.06 M-202.02,31.63L-189.38,18.98 M53.25,-223.65L126.46,-296.85 M112.16,-296.7L39.32,-223.86 M-189.92,5.38L-214.73,30.19 M-227.44,28.76L-190.46,-8.22 M25.39,-224.07L97.86,-296.54 M83.56,-296.38L11.46,-224.28 M-191,-21.82L-240.16,27.33 M-252.87,25.9L-191.55,-35.42 M-2.47,-224.49L69.25,-296.22 M54.95,-296.06L-16.4,-224.7 M-106.74,-134.37L-118.74,-122.37 M-192.09,-49.02L-265.5,24.4 M-266.27,11.02L-192.63,-62.62 M-132.17,-123.08L-107.04,-148.21 M-30.34,-224.91L40.65,-295.9 M26.35,-295.74L-44.27,-225.12 M-107.33,-162.06L-145.6,-123.79 M-193.17,-76.22L-267.03,-2.36 M-267.79,-15.74L-252.65,-30.88 M-242.65,-40.88L-193.71,-89.82 M-159.03,-124.5L-107.63,-175.9 M-58.2,-225.33L12.05,-295.58 M-2.25,-295.42L-72.13,-225.54 M-110.79,-186.88L-172.46,-125.21 M-194.25,-103.42L-243.34,-54.33 M-265.64,-32.04L-268.55,-29.12 M-244.03,-67.78L-194.8,-117.02 M-185.89,-125.93L-124.55,-187.27 M-73.37,-238.45L-12.02,-299.79 M-12.05,-313.91L-73.58,-252.38 M-138.31,-187.65L-244.73,-81.23 M-245.42,-94.69L-152.07,-188.04 M-73.79,-266.31L-12.08,-328.02 M-20.95,-333.29L-74,-280.24 M-166.07,-188.18L-246.11,-108.14 M-246.8,-121.59L-179.58,-188.8 M-74.21,-294.17L-35.45,-332.94 M-49.95,-332.58L-74.43,-308.1 M-193.34,-189.19L-247.49,-135.04 M-248.18,-148.49L-207.1,-189.57 M-74.64,-322.03L-64.45,-332.22 M-220.86,-189.96L-248.87,-161.94 M-249.56,-175.39L-234.61,-190.34 M-248.37,-190.73L-250.25,-188.85" stroke="black" stroke-width="0.5"></path><path d=" M-220.25,-193.94L-220.36,-194.1 M-195.85,-193.96L-195.35,-193.25 M-170.45,-192.55L-170.98,-193.31 M-146.1,-192.65L-145.55,-191.86 M-120.64,-191.16L-122.41,-193.69 M-97.94,-193.61L-96.81,-192 M-72.65,-192.36L-73.08,-192.98 M-48.23,-192.35L-47.76,-191.69 M-22.88,-191.01L-23.37,-191.72 M1.49,-191.08L2.01,-190.34 M26.89,-189.67L26.34,-190.45 M48.4,-193.83L51.78,-189 M75.67,-189.75L71.6,-195.56" stroke="black" stroke-width="0.5"></path><path d=" M75.86,149.02L85.12,139.75 M162.75,62.13L164.34,60.53 M164.87,45.87L150,60.74 M85.4,125.34L63.47,147.26 M51.09,145.5L85.67,110.92 M137.25,59.35L165.39,31.2 M165.91,16.54L124.49,57.96 M91.35,91.1L38.7,143.75 M26.32,141.99L78.73,89.58 M111.74,56.56L166.44,1.87 M166.96,-12.79L100.96,53.2 M66.1,88.07L13.93,140.23 M1.55,138.47L53.48,86.55 M101.27,38.76L167.48,-27.46 M168.01,-42.12L101.57,24.31 M40.85,85.03L-10.84,136.72 M-23.22,134.96L28.23,83.51 M101.88,9.86L168.53,-56.79 M169.05,-71.46L102.19,-4.59 M15.6,82L-35.6,133.2 M-47.99,131.44L2.93,80.52 M102.49,-19.04L169.58,-86.12 M170.1,-100.79L102.8,-33.49 M-9.65,78.96L-54.01,123.32 M-54.18,109.35L-22.27,77.44 M103.1,-47.93L158.82,-103.65 M145.39,-104.36L103.41,-62.38 M-34.9,75.93L-54.35,95.38 M-54.52,81.41L-47.52,74.41 M103.72,-76.83L131.96,-105.08 M118.53,-105.79L104.02,-91.28 M104.33,-105.73L105.1,-106.5 M-94.43,64.74L-87.86,58.18 M-88.12,44.29L-107.05,63.23 M-119.68,61.71L-88.37,30.41 M59.91,-117.87L66.86,-124.83 M67.06,-139.17L46.45,-118.56 M-88.63,16.52L-132.3,60.19 M-140.21,53.96L-88.88,2.63 M33,-119.25L67.27,-153.52 M67.47,-167.86L19.55,-119.94 M-89.14,-11.25L-140.63,40.24 M-141.05,26.52L-89.4,-25.14 M6.1,-120.63L67.67,-182.21 M56.2,-184.88L-7.35,-121.32 M-89.65,-39.03L-141.47,12.79 M-141.89,-0.93L-89.91,-52.91 M-20.81,-122.01L42.43,-185.25 M28.66,-185.62L-34.26,-122.7 M-90.16,-66.8L-142.3,-14.66 M-142.72,-28.38L-90.42,-80.69 M-47.71,-123.39L14.89,-185.99 M1.12,-186.36L-61.16,-124.08 M-96.22,-89.02L-143.14,-42.11 M-143.56,-55.83L-109.52,-89.86 M-74.61,-124.77L-12.65,-186.74 M-26.42,-187.11L-87.26,-126.27 M-122.83,-90.7L-143.98,-69.55 M-144.39,-83.28L-136.13,-91.54 M-87.51,-140.16L-40.19,-187.48 M-53.96,-187.85L-87.77,-154.05 M-88.02,-167.93L-67.73,-188.22 M-81.5,-188.6L-88.28,-181.82" stroke="black" stroke-width="0.5"></path><path d=" M313.93,7.12L313.38,6.57 M313.73,1.26L315.92,3.44 M317.9,-0.23L314.08,-4.05 M314.43,-9.35L319.88,-3.91 M321.86,-7.58L314.78,-14.66 M315.13,-19.97L323.84,-11.26 M325.83,-14.93L315.48,-25.27 M315.84,-30.58L327.81,-18.61 M329.3,-22.77L316.19,-35.89 M316.54,-41.19L329.67,-28.06 M330.04,-33.35L316.89,-46.5 M317.24,-51.81L330.41,-38.64 M330.78,-43.92L317.59,-57.11 M319.72,-60.64L331.14,-49.21 M331.51,-54.5L322.07,-63.94 M324.43,-67.24L331.88,-59.79 M332.25,-65.07L326.78,-70.55 M329.13,-73.85L332.62,-70.36 M332.99,-75.65L331.49,-77.15" stroke="black" stroke-width="0.5"></path><path d=" M264.51,179.2L264.08,178.78 M264.39,173.44L266.24,175.28 M267.97,171.36L264.7,168.09 M265.01,162.74L269.71,167.44 M270.78,162.85L265.32,157.39 M265.63,152.04L271.1,157.51 M271.42,152.17L265.94,146.69 M266.24,141.35L271.73,146.84 M272.05,141.5L266.55,136 M266.86,130.65L272.37,136.16 M272.69,130.82L267.17,125.3 M267.48,119.95L273.01,125.49 M273.33,120.15L267.79,114.6 M268.09,109.25L273.65,114.81 M273.97,109.47L268.4,103.91 M268.71,98.56L274.29,104.13 M274.61,98.8L269.02,93.21 M269.33,87.86L274.93,93.46 M275.25,88.12L269.64,82.51 M269.95,77.16L275.57,82.78 M275.88,77.45L270.25,71.82 M270.56,66.47L276.2,72.11 M276.52,66.77L270.87,61.12 M271.18,55.77L276.84,61.43 M277.16,56.1L271.49,50.42 M271.8,45.07L277.48,50.76 M277.8,45.42L272.1,39.73 M272.41,34.38L278.12,40.08 M278.44,34.75L272.72,29.03 M273.03,23.68L278.76,29.41 M279.08,24.07L273.34,18.33 M277.06,16.4L279.4,18.73" stroke="black" stroke-width="0.5"></path></g></svg>