<svg viewBox="-646 -488.5 1292 977" width="1292" height="977" style="background-color: rgb(170, 170, 170);"><defs></defs><g inkscape:label="Outline" inkscape:groupmode="layer" id="outline_layer"><path d="M 0 -203.04 L 48.55 -224.25 L 100.48 -203.04 L 95.5 -110.27 L 148.14 -85.53 L 137.99 34.63 L 170.6 52.53 L 169.27 65.15 L 0 184.5 L -169.27 65.15 L -170.6 52.53 L -137.99 34.63 L -140.92 0 L -128.13 -6.73 L -117.43 0 L -117.33 1.44 L -102.36 -6.57 L -103.17 -19.86 L -100.04 -21.51 L -104.1 -90.16 L -94.66 -94.69 L -102.26 -236.16 L -49.38 -256.59 L 0 -236.15 zM 121.18 -53.29 L 121.35 -55.64 L 119.11 -54.33 zM 108.86 -77.27 L 106.75 -78.3 L 106.6 -75.99 zM 72.66 -135.96 L 72.93 -142.88 L 65.62 -139.2 zM -65.63 -139.2 L -72.93 -142.88 L -72.66 -135.97 zM -24.23 -136.98 L -24.33 -144.05 L -31.64 -140.62 zM 31.64 -140.62 L 24.33 -144.05 L 24.23 -136.98 z" fill="none" stroke="black" id="outline" stroke-width="0.65mm"></path></g><g inkscape:label="Edges" inkscape:groupmode="layer" id="edges_layer"><path d="M -137.99 34.63 L -170.6 52.53 L -169.27 65.15 L 0 184.5 L 169.27 65.15 L 170.6 52.53 L 137.99 34.63 M 170.6 52.53 L 0 171.25 L -170.6 52.53 M 0 171.25 L 0 184.5 M 49.89 69.21 L 71.62 55.14 L 50.71 42.87 M 112.12 -36.76 L 120.37 -41.7 L 112.7 -45.58 L 120.37 -41.7 L 133.52 -35.04 L 135.8 -64.15 L 113.04 -50.76 L 111.11 -21.38 L 133.52 -35.04 M 87.9 -78.72 L 96.29 -83.39 L 95.82 -74.81 L 96.29 -83.39 L 97.1 -98.11 L 123.45 -85.53 L 100.48 -72.52 L 74.07 -85.53 L 97.1 -98.11 M 62.18 -119.9 L 72.22 -125.09 L 62.52 -129.62 L 72.22 -125.09 L 84.96 -119.13 L 86.42 -149.68 L 62.8 -137.78 L 61.73 -106.91 L 84.96 -119.13 M 48.83 -192.86 L 49.38 -213.83 L 75.36 -203.04 L 51.13 -191.88 L 25.12 -203.04 L 49.38 -213.83 M -97.87 15.09 L -108.33 20.85 L -107.43 34.46 L -129.17 20.34 L -130.23 6.84 L -117.43 0 L -128.13 -6.73 L -140.92 0 L -130.23 6.84 M -140.92 0 L -136.48 52.53 L -126.1 59.57 L -112.89 68.52 L -104.84 73.98 L -93.94 81.36 L -82.88 88.86 L -71.62 96.49 L -48.55 112.12 L -36.72 120.14 L -27.72 126.24 L -24.69 128.3 L 0 145.03 L 27.72 126.24 L 48.55 112.12 L 71.62 96.49 L 93.94 81.36 L 112.89 68.52 L 136.48 52.53 L 148.14 -85.53 L 102.26 -59.04 L 54.64 -82.9 M 102.26 -59.04 L 95.5 55.13 L 49.38 85.53 L 55.02 -95.31 L 13.37 -115.82 L 0 -122.41 L 0 -125.09 L 0 -140.15 L 0 -155.48 L 0 -171.06 L 0 -203.04 L 48.55 -224.25 L 100.48 -203.04 L 95.5 -110.27 L 54.81 -88.44 M 95.5 -110.27 L 148.14 -85.53 M 100.48 -203.04 L 52.05 -180.31 L 49.73 -97.91 M 52.05 -180.31 L 0 -203.04 L 0 -236.15 L -49.38 -256.59 L -102.26 -236.15 L -94.66 -94.69 M -102.26 -236.15 L -53 -214.22 L 0 -236.15 M -53 -214.22 L -50.24 -116.02 L -32.02 -106.64 M -50.24 -116.02 L -63.35 -109.73 L -45.14 -100.18 M -63.35 -109.73 L -63.21 -105.84 L -62.8 -94.27 L -54.86 -90.02 M -62.8 -94.27 L -74.81 -88.38 M 0 -122.41 L -55.02 -95.31 L -54 -62.35 L -104.1 -90.15 L -97.1 28.03 L -108.33 20.85 M -104.1 -90.15 L -90.27 -96.79 L -78.08 -90.15 L -65.65 -83.39 L -54.46 -77.3 M -55.02 -95.31 L 0 -66.05 L 0 145.03 M 0 -66.05 L 55.02 -95.31 M 95.5 55.13 L 82.87 47.85 L 70.46 40.68 L 58.24 33.63 L 51.13 29.52 M -117.43 0 L -116.48 13.45 L -129.17 20.34 L -116.48 13.45 L -98.54 3.71 M -72.94 -142.89 L -72.22 -125.09 L -62.18 -119.9 L -72.22 -125.09 L -84.96 -119.13 L -63.28 -107.73 M -84.96 -119.13 L -86.42 -149.68 L -62.8 -137.78 L -61.85 -110.45 M -49.71 -226.34 L -50.24 -246.55 L -76.69 -236.15 L -52.05 -225.38 L -25.56 -236.16 L -50.24 -246.55 M -15.46 66.07 L -24.9 71.89 L -12.92 79.54 L -24.9 71.89 L -37.68 79.77 L -12.78 95.94 L -13.01 67.62 L -38.35 51.66 L -38.29 54.04 L -38.18 58.78 L -37.68 79.77 M 12.92 79.54 L 24.9 71.89 L 15.46 66.07 L 24.9 71.89 L 37.68 79.77 L 12.78 95.94 L 13.01 67.62 L 38.35 51.66 L 37.68 79.77 M -62.35 48 L -72.22 41.7 L -72.74 30 M -99.03 -4.51 L -102.36 -6.57 L -117.33 1.44 M -102.36 -6.57 L -103.17 -19.86 L -99.82 -17.82 M -103.17 -19.86 L -100.04 -21.5 M 84.22 21.47 L 69.89 13.45 L 58.72 20.34 L 83.56 34.46 L 84.96 7.01 L 59.69 -6.89 L 58.72 20.34 M -37.56 -131.82 L -24.07 -125.09 L -37.04 -118.83 M -37.08 -109.25 L -37.68 -137.78 L -12.35 -149.68 L -12.14 -119.13 L -34.74 -108.04 M -12.14 -119.13 L -24.07 -125.09 L -24.33 -144.05 M 37.28 -118.71 L 24.07 -125.09 L 37.56 -131.82 L 24.07 -125.09 L 12.14 -119.13 L 12.35 -149.68 L 37.68 -137.78 L 37.04 -106.91 L 12.14 -119.13 M 26.02 0.43 L 25.79 14.89 L 13.38 22.32 M -11.3 -86.86 L 0 -92.66 L 11.3 -86.86 M -26.02 0.43 L -25.79 14.89 L -13.38 22.32 M 87.06 -33.94 L 72.22 -41.7 L 72.93 -58.42 M -27.02 -63.74 L -26.75 -46.33 L -13.88 -39.18 M -13.99 -53.16 L -19.97 -49.96 L -25.05 -47.24 L -26.75 -46.33 L -40.5 -38.97 L -40.99 -59.6 L -41.27 -71.48 L -27.78 -64.15 L -14.02 -56.67 L -13.76 -23.83 L -40.5 -38.97 M 106.74 -78.3 L 106.6 -75.98 M 119.11 -54.33 L 121.18 -53.29 M 24.23 -136.98 L 31.64 -140.62 M -72.66 -135.96 L -65.62 -139.2 M -31.64 -140.62 L -24.23 -136.98 M 65.62 -139.2 L 72.66 -135.96 M 72.22 -41.7 L 76.97 -44.44 L 87.92 -50.76 L 86.42 -21.38 L 60.69 -35.04 L 72.22 -41.7 M 60.69 -35.04 L 61.73 -64.15 L 74.71 -57.51 L 87.92 -50.76 M -25.79 14.89 L -18.45 10.65 L -13.5 7.79 L -39.75 -7.65 L -39.54 1.27 L -39.04 22.54 L -25.79 14.89 M -39.04 22.54 L -13.25 38.25 L -13.5 7.79 M 0 -92.66 L 0 -80.96 L -13.89 -88.2 L -27.51 -95.31 L 0 -109.11 L 0 -92.66 M 0 -109.11 L 27.51 -95.31 L 0 -80.96 M 25.79 14.89 L 39.04 22.54 L 39.75 -7.65 L 13.5 7.79 L 25.79 14.89 M 13.5 7.79 L 13.25 38.25 L 39.04 22.54 M -72.22 41.7 L -62.8 36.26 L -61.73 64.15 L -84.96 49.05 L -72.22 41.7 M -84.96 49.05 L -86.42 21.38 L -62.8 36.26 " fill="none" stroke="black" stroke-width="0.35mm"></path></g><g inkscape:label="Polygons" inkscape:groupmode="layer" id="polygons_layer" style="display:none"><path d="M 170.6 52.53 L 170.6 52.53 L 131.84 79.5 L 131.84 79.5 L 131.84 79.5 L 90.65 108.17 L 90.65 108.17 L 90.65 108.17 L 46.79 138.69 L 46.79 138.69 L 46.79 138.69 L 0 171.25 L -46.79 138.69 L -46.79 138.69 L -67.61 124.2 L -67.61 124.2 L -67.61 124.2 L -90.65 108.17 L -90.65 108.17 L -90.65 108.17 L -112.94 92.66 L -112.94 92.66 L -112.94 92.66 L -131.84 79.5 L -131.84 79.5 L -155.37 63.13 L -155.37 63.13 L -155.37 63.13 L -170.6 52.53 L -137.99 34.63 L -136.48 52.53 L -136.48 52.53 L -126.1 59.57 L -126.1 59.57 L -112.89 68.52 L -112.89 68.52 L -104.84 73.98 L -104.84 73.98 L -93.95 81.36 L -93.94 81.36 L -93.94 81.36 L -93.94 81.36 L -93.94 81.36 L -93.94 81.36 L -82.88 88.86 L -82.88 88.86 L -71.62 96.49 L -71.62 96.49 L -71.62 96.49 L -48.55 112.12 L -48.55 112.12 L -48.55 112.12 L -48.55 112.12 L -36.72 120.14 L -36.72 120.14 L -27.72 126.24 L -27.72 126.24 L -24.69 128.3 L -24.69 128.3 L 0 145.03 L 0 145.03 L 0 145.03 L 0 145.03 L 0 145.03 L 0 145.03 L 27.72 126.24 L 27.72 126.24 L 27.72 126.24 L 48.55 112.12 L 48.55 112.12 L 71.62 96.49 L 71.62 96.49 L 93.94 81.36 L 93.94 81.36 L 112.89 68.52 L 112.89 68.52 L 136.48 52.53 L 137.99 34.63 L 170.6 52.53 zM 46.79 138.69 L 46.79 138.69 L 46.79 138.69 zM 90.65 108.17 L 90.65 108.17 L 90.65 108.17 zM 131.84 79.5 L 131.84 79.5 L 131.84 79.5 zM 49.89 69.21 L 49.9 68.94 L 50.11 69.07 zM 170.6 52.53 L 170.6 52.53 L 170.6 52.53 z" fill="none" stroke="black" id="0|10|0||0" stroke-width="0.35mm"></path><path d="M 134.08 -42.22 L 134.08 -42.22 L 133.7 -37.43 L 133.7 -37.43 L 133.7 -37.43 L 133.52 -35.04 L 120.37 -41.7 L 112.12 -36.76 L 112.7 -45.58 L 120.37 -41.7 L 121.35 -55.65 L 135.8 -64.15 L 134.08 -42.22 zM 87.9 -78.72 L 96.29 -83.39 L 95.82 -74.81 zM 110.17 -91.87 L 123.45 -85.53 L 108.87 -77.27 L 96.29 -83.39 L 96.29 -83.39 L 97.1 -98.11 L 97.1 -98.11 L 97.1 -98.11 L 110.17 -91.87 zM 110.17 -91.87 L 110.17 -91.87 L 110.17 -91.87 zM 110.17 -91.87 L 110.17 -91.87 L 110.17 -91.87 zM 85.68 -134.28 L 85.68 -134.28 L 85.5 -130.47 L 85.5 -130.47 L 85.5 -130.47 L 85.32 -126.67 L 85.32 -126.67 L 85.32 -126.67 L 84.96 -119.13 L 84.96 -119.13 L 84.96 -119.13 L 72.22 -125.09 L 72.22 -125.09 L 62.18 -119.9 L 62.52 -129.62 L 72.22 -125.09 L 72.94 -142.89 L 86.42 -149.68 L 85.68 -134.28 zM 51.13 -191.88 L 48.83 -192.86 L 49.38 -213.82 L 49.38 -213.83 L 49.38 -213.83 L 75.36 -203.04 z" fill="none" stroke="black" id="0|0|10||-2" stroke-width="0.35mm"></path><path d="M -116.48 13.45 L -129.17 20.34 L -129.17 20.34 L -129.17 20.34 L -130.23 6.84 L -130.23 6.84 L -117.43 0 L -116.48 13.45 zM -106.48 19.83 L -116.48 13.45 L -103.65 6.48 L -103.65 6.48 L -98.54 3.71 L -97.87 15.09 zM -117.43 0 L -117.43 0 L -117.43 0 zM -117.43 0 L -117.43 0 L -117.43 0 zM -74.71 -143.78 L -72.94 -142.89 L -72.22 -125.09 L -72.22 -125.09 L -84.96 -119.13 L -84.96 -119.13 L -84.96 -119.13 L -85.68 -134.28 L -85.68 -134.28 L -85.68 -134.28 L -85.82 -137.14 L -85.82 -137.14 L -85.82 -137.14 L -86.42 -149.68 L -86.42 -149.68 L -74.71 -143.78 zM -72.22 -125.09 L -62.52 -129.62 L -62.18 -119.9 zM -52.05 -225.38 L -76.69 -236.15 L -50.24 -246.55 L -49.71 -226.34 z" fill="none" stroke="black" id="10|0|0||-2" stroke-width="0.35mm"></path><path d="M -24.9 71.89 L -12.92 79.54 L -12.78 95.94 L -12.78 95.94 L -12.78 95.94 L -14.89 94.57 L -14.89 94.57 L -14.89 94.57 L -25.34 87.78 L -25.34 87.78 L -25.34 87.78 L -37.68 79.77 L -37.68 79.77 L -37.68 79.77 L -24.9 71.89 L -24.9 71.89 L -25.09 60.01 L -15.46 66.07 zM 37.68 79.77 L 37.68 79.77 L 37.68 79.77 L 25.34 87.78 L 25.34 87.78 L 25.34 87.78 L 12.78 95.94 L 12.9 81.9 L 12.9 81.9 L 12.92 79.54 L 24.9 71.89 L 19.64 68.65 L 19.64 68.65 L 19.64 68.65 L 15.46 66.07 L 25.09 60.01 L 24.9 71.89 zM -62.8 36.26 L -72.22 41.7 L -62.35 48 L -61.73 64.15 L -66.14 61.28 L -66.14 61.28 L -66.14 61.28 L -73.44 56.54 L -73.44 56.54 L -73.44 56.54 L -84.96 49.05 L -84.96 49.05 L -84.96 49.05 L -72.22 41.7 L -72.22 41.7 L -72.74 30 L -62.8 36.26 zM -99.03 -4.51 L -98.54 3.71 L -103.65 6.48 L -103.65 6.48 L -116.48 13.45 L -106.48 19.83 L -108.33 20.85 L -107.43 34.46 L -114.5 29.87 L -114.5 29.87 L -114.5 29.87 L -129.17 20.34 L -129.17 20.34 L -116.48 13.45 L -116.48 13.45 L -117.33 1.44 L -102.36 -6.57 L -102.36 -6.57 zM 83.56 34.46 L 83.56 34.46 L 83.56 34.46 L 73.11 28.52 L 73.11 28.52 L 73.11 28.52 L 58.72 20.34 L 58.72 20.34 L 69.89 13.45 L 84.22 21.47 z" fill="none" stroke="black" id="0|10|0||6" stroke-width="0.35mm"></path><path d="" fill="none" stroke="black" id="0|10|0||12" stroke-width="0.35mm"></path><path d="M 50.11 69.07 L 49.9 68.94 L 50.24 58.01 L 50.24 58.01 L 50.24 58.01 L 50.71 42.87 L 71.62 55.14 zM -34.72 -130.4 L -34.72 -130.4 L -24.07 -125.09 L -37.04 -118.83 L -37.04 -118.83 L -37.04 -118.83 L -37.28 -118.71 L -37.35 -122.21 L -37.35 -122.21 L -37.56 -131.82 L -34.72 -130.4 zM -12.24 -134.28 L -12.24 -134.28 L -12.23 -132.75 L -12.23 -132.75 L -12.23 -132.75 L -12.19 -126.67 L -12.19 -126.67 L -12.19 -126.67 L -12.14 -119.13 L -12.14 -119.13 L -24.07 -125.09 L -24.33 -144.05 L -12.35 -149.68 L -12.24 -134.28 zM -38.01 -241.4 L -38.01 -241.4 L -25.56 -236.15 L -49.71 -226.34 L -50.24 -246.55 L -50.24 -246.55 L -38.01 -241.4 z" fill="none" stroke="black" id="0|0|10||6" stroke-width="0.35mm"></path><path d="M -86.42 21.38 L -74.71 28.76 L -74.71 28.76 L -72.74 30 L -72.22 41.7 L -72.22 41.7 L -84.96 49.05 L -85.68 35.34 L -85.68 35.34 L -85.68 35.34 L -86.05 28.39 L -86.05 28.39 L -86.05 28.39 L -86.14 26.64 L -86.14 26.64 L -86.14 26.64 L -86.42 21.38 L -86.42 21.38 zM -72.22 41.7 L -62.8 36.26 L -62.35 48 zM 24.07 -125.09 L 34.35 -130.22 L 34.35 -130.22 L 37.56 -131.82 L 37.28 -118.71 zM 12.35 -149.68 L 24.33 -144.05 L 24.07 -125.09 L 24.07 -125.09 L 12.14 -119.13 L 12.14 -119.13 L 12.14 -119.13 L 12.24 -134.28 L 12.24 -134.28 L 12.24 -134.28 L 12.29 -141.94 L 12.29 -141.94 L 12.29 -141.94 L 12.35 -149.68 L 12.35 -149.68 zM 48.83 -192.86 L 25.12 -203.04 L 49.38 -213.83 L 49.38 -213.82 z" fill="none" stroke="black" id="10|0|0||6" stroke-width="0.35mm"></path><path d="M 38.01 65.84 L 38.01 65.84 L 37.92 69.73 L 37.92 69.73 L 37.92 69.73 L 37.84 72.83 L 37.84 72.83 L 37.84 72.83 L 37.68 79.77 L 37.68 79.77 L 37.68 79.77 L 24.9 71.89 L 25.09 60.01 L 38.35 51.66 L 38.01 65.84 zM 19.64 68.65 L 19.64 68.65 L 24.9 71.89 L 12.92 79.54 L 13.01 67.62 L 15.46 66.07 L 19.64 68.65 zM 39.39 7.58 L 39.39 7.58 L 39.17 16.96 L 39.17 16.96 L 39.17 16.96 L 39.04 22.54 L 25.79 14.89 L 25.79 14.89 L 26.02 0.43 L 39.75 -7.65 L 39.39 7.58 zM 16.55 9.56 L 16.55 9.56 L 25.79 14.89 L 13.38 22.32 L 13.5 7.79 L 13.5 7.79 L 16.55 9.56 zM -99.03 -4.51 L -102.36 -6.57 L -103.17 -19.86 L -103.17 -19.86 L -99.82 -17.82 zM -11.3 -86.86 L 0 -92.66 L 0 -80.96 zM 11.3 -86.86 L 0 -92.66 L 0 -92.66 L 0 -109.11 L 0 -109.11 L 0 -109.11 L 27.51 -95.31 zM -55.02 -95.31 L -55.02 -95.31 L -54.86 -90.02 L -62.8 -94.27 L -63.21 -105.84 L -63.21 -105.84 L -63.21 -105.84 L -63.35 -109.73 L -63.35 -109.73 L -45.14 -100.18 zM 13.63 -102.27 L 13.63 -102.27 L 13.63 -102.27 zM 13.63 -102.27 L 13.63 -102.27 L 13.63 -102.27 z" fill="none" stroke="black" id="0|0|10||14" stroke-width="0.35mm"></path><path d="M -155.37 63.13 L -155.37 63.13 L -131.84 79.5 L -131.84 79.5 L -131.84 79.5 L -131.84 79.5 L -112.94 92.66 L -112.94 92.66 L -112.94 92.66 L -90.65 108.17 L -90.65 108.17 L -67.61 124.2 L -67.61 124.2 L -67.61 124.2 L -46.79 138.69 L -46.79 138.69 L -46.79 138.69 L 0 171.25 L 0 184.5 L 0 184.5 L -169.27 65.15 L -169.27 65.15 L -170.6 52.53 L -170.6 52.53 L -170.6 52.53 L -155.37 63.13 z" fill="none" stroke="black" id="0|0|10||23" stroke-width="0.35mm"></path><path d="M -24.9 71.89 L -24.9 71.89 L -37.68 79.77 L -37.68 79.77 L -37.68 79.77 L -38.18 58.78 L -38.18 58.78 L -38.18 58.78 L -38.29 54.04 L -38.29 54.04 L -38.29 54.04 L -38.29 54.04 L -38.35 51.66 L -25.09 60.01 zM -12.92 79.54 L -24.9 71.89 L -15.46 66.07 L -13.01 67.62 zM -26.75 0 L -26.75 0 L -26.02 0.43 L -25.79 14.89 L -25.79 14.89 L -39.04 22.54 L -39.04 22.54 L -39.04 22.54 L -39.39 7.58 L -39.39 7.58 L -39.39 7.58 L -39.54 1.27 L -39.54 1.27 L -39.54 1.27 L -39.54 1.27 L -39.75 -7.65 L -26.75 0 zM -25.79 14.89 L -18.45 10.65 L -18.45 10.65 L -18.45 10.65 L -13.5 7.79 L -13.38 22.32 zM 72.22 0 L 72.22 0 L 84.96 7.01 L 84.22 21.47 L 69.89 13.45 L 58.72 20.34 L 58.72 20.34 L 58.72 20.34 L 59.2 6.84 L 59.2 6.84 L 59.2 6.84 L 59.28 4.56 L 59.28 4.56 L 59.28 4.56 L 59.69 -6.89 L 72.22 0 zM 72.22 -41.7 L 76.97 -44.44 L 76.97 -44.44 L 76.97 -44.44 L 87.92 -50.76 L 87.06 -33.94 zM 72.22 -41.7 L 72.22 -41.7 L 60.69 -35.04 L 60.69 -35.04 L 60.69 -35.04 L 61.2 -49.47 L 61.2 -49.47 L 61.2 -49.47 L 61.25 -50.68 L 61.25 -50.68 L 61.25 -50.68 L 61.73 -64.15 L 72.93 -58.42 zM -27.78 -64.15 L -27.78 -64.15 L -27.02 -63.74 L -26.75 -46.33 L -26.75 -46.33 L -40.5 -38.97 L -40.5 -38.97 L -40.5 -38.97 L -40.88 -55.07 L -40.88 -55.07 L -40.88 -55.07 L -40.99 -59.6 L -40.99 -59.6 L -40.99 -59.6 L -40.99 -59.6 L -40.99 -59.6 L -41.27 -71.48 L -27.78 -64.15 zM -26.75 -46.33 L -25.05 -47.24 L -25.05 -47.24 L -25.05 -47.24 L -25.05 -47.24 L -19.97 -49.96 L -19.97 -49.96 L -19.97 -49.96 L -13.99 -53.16 L -13.88 -39.18 zM 96.29 -83.39 L 96.29 -83.39 L 106.74 -78.3 L 106.6 -75.98 L 100.48 -72.52 L 95.82 -74.81 L 96.29 -83.39 L 87.9 -78.72 L 74.07 -85.53 L 97.1 -98.11 L 97.1 -98.11 zM 0 -92.66 L 0 -92.66 L 11.3 -86.86 L 0 -80.96 L 0 -80.96 L 0 -92.66 L -11.3 -86.86 L -13.89 -88.2 L -13.89 -88.2 L -27.51 -95.31 L 0 -109.11 L 0 -109.11 z" fill="none" stroke="black" id="10|0|0||14" stroke-width="0.35mm"></path><path d="M 170.6 52.53 L 169.27 65.15 L 0 184.5 L 0 171.25 L 0 171.25 L 170.6 52.53 L 170.6 52.53 z" fill="none" stroke="black" id="10|0|0||23" stroke-width="0.35mm"></path><path d="M -13.5 7.79 L -18.45 10.65 L -18.45 10.65 L -18.45 10.65 L -25.79 14.89 L -13.38 22.32 L -13.25 38.25 L -13.25 38.25 L -13.25 38.25 L -20.87 33.61 L -20.87 33.61 L -20.87 33.61 L -39.04 22.54 L -39.04 22.54 L -25.79 14.89 L -25.79 14.89 L -26.02 0.43 L -13.5 7.79 zM 25.79 14.89 L 39.04 22.54 L 39.04 22.54 L 39.04 22.54 L 26.26 30.32 L 26.26 30.32 L 26.26 30.32 L 13.25 38.25 L 13.37 23.16 L 13.37 23.16 L 13.38 22.32 L 25.79 14.89 L 16.55 9.56 L 16.55 9.56 L 16.55 9.56 L 13.5 7.79 L 26.02 0.43 L 25.79 14.89 zM 74.71 -57.51 L 74.71 -57.51 L 87.92 -50.76 L 87.92 -50.76 L 76.97 -44.44 L 76.97 -44.44 L 76.97 -44.44 L 72.22 -41.7 L 87.06 -33.94 L 86.42 -21.38 L 86.42 -21.38 L 86.42 -21.38 L 74.52 -27.7 L 74.52 -27.7 L 74.52 -27.7 L 60.69 -35.04 L 60.69 -35.04 L 72.22 -41.7 L 72.22 -41.7 L 72.93 -58.42 L 74.71 -57.51 zM 133.52 -35.04 L 133.52 -35.04 L 122.41 -28.27 L 122.41 -28.27 L 122.41 -28.27 L 111.11 -21.38 L 112.12 -36.76 L 120.37 -41.7 L 133.52 -35.04 zM 120.37 -41.7 L 112.7 -45.58 L 113.04 -50.76 L 119.11 -54.33 L 121.18 -53.29 z" fill="none" stroke="black" id="0|10|0||14" stroke-width="0.35mm"></path><path d="M -65.65 -219.85 L -65.65 -219.85 L -53.01 -214.22 L -50.24 -116.02 L -50.24 -116.02 L -61.85 -110.45 L -62.8 -137.78 L -74.71 -143.78 L -74.71 -143.78 L -74.71 -143.78 L -86.42 -149.68 L -86.42 -149.68 L -86.42 -149.68 L -85.82 -137.14 L -85.82 -137.14 L -85.82 -137.14 L -85.68 -134.28 L -85.68 -134.28 L -85.68 -134.28 L -84.96 -119.13 L -84.96 -119.13 L -84.96 -119.13 L -71.26 -111.93 L -71.26 -111.93 L -71.26 -111.93 L -63.28 -107.73 L -63.21 -105.84 L -63.21 -105.84 L -63.21 -105.84 L -62.8 -94.27 L -74.81 -88.38 L -78.08 -90.15 L -78.08 -90.15 L -78.08 -90.15 L -90.27 -96.79 L -94.66 -94.69 L -102.26 -236.15 L -65.65 -219.85 z" fill="none" stroke="black" id="0|0|10||12" stroke-width="0.35mm"></path><path d="M -41.67 -88.2 L -41.67 -88.2 L -14.16 -73.58 L -14.16 -73.58 L -14.16 -73.58 L 0 -66.05 L 0 -32.39 L 0 -16.04 L 0 0 L 0 15.73 L 0 31.17 L 0 31.17 L 0 31.17 L 0 46.33 L 0 46.33 L 0 46.33 L 0 61.21 L 0 90.15 L 0 90.15 L 0 90.15 L 0 104.24 L 0 104.24 L 0 104.24 L 0 145.03 L 0 145.03 L 0 145.03 L 0 145.03 L -24.69 128.3 L -24.69 128.3 L -27.72 126.24 L -27.72 126.24 L -36.72 120.14 L -36.72 120.14 L -48.55 112.12 L -48.55 112.12 L -48.55 112.12 L -48.55 112.12 L -48.55 112.12 L -48.55 112.12 L -71.62 96.49 L -71.62 96.49 L -71.62 96.49 L -82.88 88.86 L -82.88 88.86 L -93.94 81.36 L -93.94 81.36 L -93.94 81.36 L -93.94 81.36 L -93.94 81.36 L -93.95 81.36 L -104.84 73.98 L -104.84 73.98 L -112.89 68.52 L -112.89 68.52 L -126.1 59.57 L -126.1 59.57 L -136.48 52.53 L -136.48 52.53 L -140.92 0 L -130.23 6.84 L -129.17 20.34 L -129.17 20.34 L -129.17 20.34 L -114.5 29.87 L -114.5 29.87 L -114.5 29.87 L -107.43 34.46 L -108.33 20.85 L -108.33 20.85 L -97.1 28.03 L -104.1 -90.15 L -104.1 -90.15 L -104.1 -90.15 L -91.92 -83.39 L -91.92 -83.39 L -91.92 -83.39 L -66.87 -69.49 L -66.87 -69.49 L -66.87 -69.49 L -54 -62.35 L -55.02 -95.31 L -55.02 -95.31 L -55.02 -95.31 L -41.67 -88.2 zM 0 118.08 L 0 118.08 L 0 118.08 zM -38.29 54.04 L -38.29 54.04 L -38.29 54.04 L -38.18 58.78 L -38.18 58.78 L -38.18 58.78 L -37.68 79.77 L -37.68 79.77 L -25.34 87.78 L -25.34 87.78 L -25.34 87.78 L -14.89 94.57 L -14.89 94.57 L -14.89 94.57 L -12.78 95.94 L -12.78 95.94 L -12.78 95.94 L -13.01 67.62 L -38.35 51.66 L -38.29 54.04 zM -86.14 26.64 L -86.14 26.64 L -86.05 28.39 L -86.05 28.39 L -86.05 28.39 L -85.68 35.34 L -85.68 35.34 L -85.68 35.34 L -84.96 49.05 L -84.96 49.05 L -73.44 56.54 L -73.44 56.54 L -73.44 56.54 L -66.14 61.28 L -66.14 61.28 L -66.14 61.28 L -61.73 64.15 L -62.8 36.26 L -74.71 28.76 L -74.71 28.76 L -74.71 28.76 L -86.42 21.38 L -86.42 21.38 L -86.42 21.38 L -86.14 26.64 zM 0 61.21 L 0 61.21 L 0 61.21 zM -39.54 1.27 L -39.54 1.27 L -39.54 1.27 L -39.39 7.58 L -39.39 7.58 L -39.39 7.58 L -39.04 22.54 L -39.04 22.54 L -39.04 22.54 L -20.87 33.61 L -20.87 33.61 L -20.87 33.61 L -13.25 38.25 L -13.25 38.25 L -13.25 38.25 L -13.5 7.79 L -39.75 -7.65 L -39.54 1.27 zM 0 0 L 0 0 L 0 0 zM -40.99 -59.6 L -40.99 -59.6 L -40.99 -59.6 L -40.99 -59.6 L -40.88 -55.07 L -40.88 -55.07 L -40.88 -55.07 L -40.5 -38.97 L -40.5 -38.97 L -40.5 -38.97 L -23.53 -29.36 L -23.53 -29.36 L -23.53 -29.36 L -13.76 -23.83 L -13.76 -23.83 L -13.76 -23.83 L -14.02 -56.67 L -27.78 -64.15 L -27.78 -64.15 L -27.78 -64.15 L -41.27 -71.48 L -40.99 -59.6 zM 0 -32.39 L 0 -32.39 L 0 -32.39 z" fill="none" stroke="black" id="0|0|10||20" stroke-width="0.35mm"></path><path d="M -108.33 20.85 L -97.87 15.09 L -97.1 28.03 zM -117.43 0 L -117.43 0 L -130.23 6.84 L -130.23 6.84 L -140.92 0 L -140.92 0 L -140.92 0 L -128.13 -6.73 L -128.13 -6.73 L -117.43 0 zM -103.17 -19.86 L -100.04 -21.5 L -99.82 -17.82 z" fill="none" stroke="black" id="0|10|0||8" stroke-width="0.35mm"></path><path d="M 55.02 -95.31 L 52.05 0 L 52.05 0 L 52.05 0 L 51.59 14.89 L 51.59 14.89 L 50.24 58.01 L 50.24 58.01 L 50.24 58.01 L 49.38 85.53 L 49.38 85.53 L 49.38 85.53 L 95.5 55.14 L 95.5 55.14 L 99.61 -14.38 L 99.61 -14.38 L 99.61 -14.38 L 100.48 -29.01 L 100.48 -29.01 L 100.48 -29.01 L 102.26 -59.04 L 102.26 -59.04 L 102.26 -59.04 L 102.26 -59.04 L 148.14 -85.53 L 148.14 -85.53 L 148.14 -85.53 L 145.65 -56.06 L 145.65 -56.06 L 145.65 -56.06 L 138.66 26.69 L 138.66 26.69 L 138.66 26.69 L 136.48 52.53 L 112.89 68.52 L 112.89 68.52 L 93.94 81.36 L 93.94 81.36 L 71.62 96.49 L 71.62 96.49 L 48.55 112.12 L 48.55 112.12 L 27.72 126.24 L 27.72 126.24 L 27.72 126.24 L 0 145.03 L 0 145.03 L 0 104.24 L 0 104.24 L 0 104.24 L 0 90.15 L 0 90.15 L 0 90.15 L 0 90.15 L 0 90.15 L 0 75.81 L 0 46.33 L 0 46.33 L 0 46.33 L 0 31.17 L 0 31.17 L 0 31.17 L 0 31.17 L 0 31.17 L 0 15.73 L 0 -66.05 L 0 -66.05 L 0 -66.05 L 0 -66.05 L 55.02 -95.31 L 55.02 -95.31 zM 0 118.08 L 0 118.08 L 0 118.08 zM 12.9 81.9 L 12.9 81.9 L 12.78 95.94 L 25.34 87.78 L 25.34 87.78 L 25.34 87.78 L 37.68 79.77 L 37.84 72.83 L 37.84 72.83 L 37.84 72.83 L 37.92 69.73 L 37.92 69.73 L 37.92 69.73 L 38.01 65.84 L 38.01 65.84 L 38.01 65.84 L 38.35 51.66 L 13.01 67.62 zM 0 61.21 L 0 61.21 L 0 61.21 zM 13.37 23.16 L 13.37 23.16 L 13.25 38.25 L 26.26 30.32 L 26.26 30.32 L 26.26 30.32 L 39.04 22.54 L 39.04 22.54 L 39.04 22.54 L 39.17 16.96 L 39.17 16.96 L 39.17 16.96 L 39.39 7.58 L 39.39 7.58 L 39.39 7.58 L 39.75 -7.65 L 13.5 7.79 zM 0 0 L 0 0 L 0 0 zM 111.11 -21.38 L 122.41 -28.27 L 122.41 -28.27 L 122.41 -28.27 L 133.52 -35.04 L 133.52 -35.04 L 133.52 -35.04 L 133.7 -37.43 L 133.7 -37.43 L 133.7 -37.43 L 134.08 -42.22 L 134.08 -42.22 L 134.08 -42.22 L 135.8 -64.15 L 113.04 -50.76 zM 0 -32.39 L 0 -32.39 L 0 -32.39 z" fill="none" stroke="black" id="10|0|0||20" stroke-width="0.35mm"></path><path d="M 62.26 -79.08 L 62.26 -79.08 L 88.69 -65.84 L 88.69 -65.84 L 88.69 -65.84 L 102.26 -59.04 L 100.48 -29.01 L 100.48 -29.01 L 100.48 -29.01 L 99.61 -14.38 L 99.61 -14.38 L 99.61 -14.38 L 95.5 55.14 L 95.5 55.14 L 95.5 55.14 L 95.5 55.13 L 82.88 47.85 L 82.87 47.85 L 82.87 47.85 L 82.87 47.85 L 70.46 40.68 L 70.46 40.68 L 70.46 40.68 L 58.24 33.63 L 58.24 33.63 L 58.24 33.63 L 58.24 33.63 L 58.24 33.63 L 51.13 29.52 L 51.59 14.89 L 51.59 14.89 L 52.05 0 L 52.05 0 L 52.05 0 L 53.01 -30.6 L 53.01 -30.6 L 54 -62.35 L 54 -62.35 L 54.64 -82.9 L 62.26 -79.08 zM 59.28 4.56 L 59.28 4.56 L 59.2 6.84 L 59.2 6.84 L 59.2 6.84 L 58.72 20.34 L 58.72 20.34 L 58.72 20.34 L 73.11 28.52 L 73.11 28.52 L 73.11 28.52 L 83.56 34.46 L 83.56 34.46 L 83.56 34.46 L 84.96 7.01 L 59.69 -6.89 L 59.69 -6.89 L 59.28 4.56 zM 61.25 -50.68 L 61.25 -50.68 L 61.2 -49.47 L 61.2 -49.47 L 61.2 -49.47 L 60.69 -35.04 L 60.69 -35.04 L 60.69 -35.04 L 74.52 -27.7 L 74.52 -27.7 L 74.52 -27.7 L 86.42 -21.38 L 86.42 -21.38 L 86.42 -21.38 L 87.92 -50.76 L 74.71 -57.51 L 74.71 -57.51 L 74.71 -57.51 L 61.73 -64.15 L 61.25 -50.68 zM 38.69 -186.14 L 38.69 -186.14 L 52.05 -180.31 L 50.24 -116.02 L 50.24 -116.02 L 50.24 -116.02 L 49.81 -100.65 L 49.81 -100.65 L 49.81 -100.65 L 49.73 -97.91 L 13.37 -115.82 L 13.37 -115.82 L 13.37 -115.82 L 0 -122.41 L 0 -125.09 L 0 -125.09 L 0 -125.09 L 0 -140.15 L 0 -140.15 L 0 -140.15 L 0 -140.15 L 0 -140.15 L 0 -155.48 L 0 -155.48 L 0 -155.48 L 0 -171.06 L 0 -171.06 L 0 -171.06 L 0 -171.06 L 0 -203.04 L 38.69 -186.14 zM 12.29 -141.94 L 12.29 -141.94 L 12.24 -134.28 L 12.24 -134.28 L 12.24 -134.28 L 12.14 -119.13 L 24.48 -113.07 L 24.48 -113.07 L 24.48 -113.07 L 30.73 -110.01 L 30.73 -110.01 L 30.73 -110.01 L 37.04 -106.91 L 37.68 -137.78 L 24.9 -143.78 L 24.9 -143.78 L 12.35 -149.68 L 12.35 -149.68 L 12.35 -149.68 L 12.29 -141.94 z" fill="none" stroke="black" id="0|0|10||4" stroke-width="0.35mm"></path><path d="M 100.48 -203.04 L 98.76 -171.06 L 98.76 -171.06 L 98.76 -171.06 L 97.1 -140.15 L 97.1 -140.15 L 97.1 -140.15 L 95.5 -110.27 L 95.5 -110.27 L 54.81 -88.44 L 55.02 -95.31 L 55.02 -95.31 L 55.02 -95.31 L 49.73 -97.91 L 49.81 -100.65 L 49.81 -100.65 L 49.81 -100.65 L 50.24 -116.02 L 50.24 -116.02 L 50.24 -116.02 L 52.05 -180.31 L 52.05 -180.31 L 100.48 -203.04 L 100.48 -203.04 zM 61.73 -106.91 L 73.44 -113.07 L 73.44 -113.07 L 73.44 -113.07 L 84.96 -119.13 L 85.32 -126.67 L 85.32 -126.67 L 85.32 -126.67 L 85.5 -130.47 L 85.5 -130.47 L 85.5 -130.47 L 85.68 -134.28 L 85.68 -134.28 L 85.68 -134.28 L 86.42 -149.68 L 62.8 -137.78 z" fill="none" stroke="black" id="10|0|0||12" stroke-width="0.35mm"></path><path d="M 58.24 33.63 L 58.24 33.63 L 58.24 33.63 L 58.24 33.63 L 70.46 40.68 L 70.46 40.68 L 70.46 40.68 L 82.87 47.85 L 82.87 47.85 L 82.87 47.85 L 82.88 47.85 L 95.5 55.13 L 95.5 55.14 L 95.5 55.14 L 49.38 85.53 L 49.38 85.53 L 49.38 85.53 L 49.81 71.89 L 49.81 71.89 L 49.89 69.21 L 71.62 55.14 L 50.71 42.87 L 51.13 29.52 L 51.13 29.52 L 58.24 33.63 z" fill="none" stroke="black" id="0|10|0||4" stroke-width="0.35mm"></path><path d="M -13.99 -53.16 L -19.97 -49.96 L -19.97 -49.96 L -19.97 -49.96 L -25.05 -47.24 L -25.05 -47.24 L -25.05 -47.24 L -25.05 -47.24 L -26.75 -46.33 L -13.88 -39.18 L -13.76 -23.83 L -13.76 -23.83 L -13.76 -23.83 L -23.53 -29.36 L -23.53 -29.36 L -23.53 -29.36 L -40.5 -38.97 L -40.5 -38.97 L -26.75 -46.33 L -26.75 -46.33 L -27.02 -63.74 L -14.02 -56.67 zM -54.86 -90.02 L -54.46 -77.3 L -65.65 -83.39 L -65.65 -83.39 L -65.65 -83.39 L -74.81 -88.38 L -62.8 -94.27 L -62.8 -94.27 zM 37.56 -131.82 L 34.35 -130.22 L 34.35 -130.22 L 24.07 -125.09 L 37.28 -118.71 L 37.04 -106.91 L 30.73 -110.01 L 30.73 -110.01 L 30.73 -110.01 L 24.48 -113.07 L 24.48 -113.07 L 24.48 -113.07 L 12.14 -119.13 L 12.14 -119.13 L 24.07 -125.09 L 24.07 -125.09 L 24.23 -136.98 L 31.64 -140.62 L 37.68 -137.78 zM 84.96 -119.13 L 84.96 -119.13 L 84.96 -119.13 L 73.44 -113.07 L 73.44 -113.07 L 73.44 -113.07 L 61.73 -106.91 L 62.18 -119.9 L 72.22 -125.09 L 72.22 -125.09 zM -62.52 -129.62 L -72.22 -125.09 L -62.18 -119.9 L -61.85 -110.45 L -63.35 -109.73 L -63.28 -107.73 L -71.26 -111.93 L -71.26 -111.93 L -71.26 -111.93 L -84.96 -119.13 L -84.96 -119.13 L -72.22 -125.09 L -72.22 -125.09 L -72.66 -135.96 L -65.62 -139.2 L -62.8 -137.78 zM -24.07 -125.09 L -12.14 -119.13 L -12.14 -119.13 L -12.14 -119.13 L -24.48 -113.07 L -24.48 -113.07 L -24.48 -113.07 L -34.74 -108.04 L -37.08 -109.25 L -37.28 -118.71 L -37.04 -118.83 L -37.04 -118.83 L -37.04 -118.83 L -24.07 -125.09 L -34.72 -130.4 L -34.72 -130.4 L -34.72 -130.4 L -37.56 -131.82 L -37.68 -137.78 L -31.64 -140.62 L -24.23 -136.98 zM 72.22 -125.09 L 62.52 -129.62 L 62.8 -137.78 L 65.62 -139.2 L 72.66 -135.96 z" fill="none" stroke="black" id="0|10|0||22" stroke-width="0.35mm"></path><path d="M 0 -236.15 L 0 -203.04 L 0 -203.04 L 0 -203.04 L 0 -203.04 L 0 -171.06 L 0 -171.06 L 0 -171.06 L 0 -171.06 L 0 -155.48 L 0 -155.48 L 0 -155.48 L 0 -140.15 L 0 -140.15 L 0 -140.15 L 0 -140.15 L 0 -125.09 L 0 -125.09 L 0 -125.09 L 0 -122.41 L 0 -122.41 L -32.02 -106.64 L -34.74 -108.04 L -24.48 -113.07 L -24.48 -113.07 L -24.48 -113.07 L -12.14 -119.13 L -12.19 -126.67 L -12.19 -126.67 L -12.19 -126.67 L -12.23 -132.75 L -12.23 -132.75 L -12.23 -132.75 L -12.24 -134.28 L -12.24 -134.28 L -12.24 -134.28 L -12.35 -149.68 L -37.68 -137.78 L -37.35 -122.21 L -37.35 -122.21 L -37.08 -109.25 L -50.24 -116.02 L -53.01 -214.22 L -53 -214.22 L 0 -236.16 L 0 -236.15 z" fill="none" stroke="black" id="10|0|0||4" stroke-width="0.35mm"></path><path d="" fill="none" stroke="black" id="0|10|0||16" stroke-width="0.35mm"></path><path d="M 108.33 -104.24 L 108.33 -104.24 L 148.14 -85.53 L 102.26 -59.04 L 102.26 -59.04 L 102.26 -59.04 L 88.69 -65.84 L 88.69 -65.84 L 88.69 -65.84 L 62.26 -79.08 L 62.26 -79.08 L 62.26 -79.08 L 54.64 -82.9 L 54.81 -88.44 L 95.5 -110.27 L 95.5 -110.27 L 108.33 -104.24 zM 100.48 -72.52 L 123.45 -85.53 L 110.17 -91.87 L 110.17 -91.87 L 97.1 -98.11 L 74.07 -85.53 zM 110.17 -91.87 L 110.17 -91.87 L 110.17 -91.87 zM 110.17 -91.87 L 110.17 -91.87 L 110.17 -91.87 z" fill="none" stroke="black" id="0|10|0||20" stroke-width="0.35mm"></path><path d="M 61.2 -219.08 L 61.2 -219.08 L 100.48 -203.04 L 52.05 -180.31 L 52.05 -180.31 L 52.05 -180.31 L 38.69 -186.14 L 38.69 -186.14 L 38.69 -186.14 L 0 -203.04 L 0 -203.04 L 0 -203.04 L 48.55 -224.25 L 61.2 -219.08 zM 51.13 -191.88 L 75.36 -203.04 L 62.26 -208.48 L 62.26 -208.48 L 49.38 -213.83 L 25.12 -203.04 z" fill="none" stroke="black" id="0|10|0||32" stroke-width="0.35mm"></path><path d="M -37.35 -251.61 L -37.35 -251.61 L 0 -236.16 L -53 -214.22 L -53.01 -214.22 L -53.01 -214.22 L -65.65 -219.85 L -65.65 -219.85 L -65.65 -219.85 L -102.26 -236.15 L -102.26 -236.15 L -49.38 -256.59 L -37.36 -251.61 zM -52.05 -225.38 L -25.56 -236.16 L -38.01 -241.4 L -38.01 -241.4 L -38.01 -241.4 L -50.24 -246.55 L -76.69 -236.15 z" fill="none" stroke="black" id="0|10|0||36" stroke-width="0.35mm"></path><path d="M -78.08 -90.15 L -78.08 -90.15 L -65.65 -83.39 L -65.65 -83.39 L -65.65 -83.39 L -54.46 -77.3 L -54 -62.35 L -66.87 -69.49 L -66.87 -69.49 L -66.87 -69.49 L -91.92 -83.39 L -91.92 -83.39 L -91.92 -83.39 L -104.1 -90.15 L -90.27 -96.79 L -78.08 -90.15 zM -104.1 -90.15 L -104.1 -90.15 L -104.1 -90.15 zM -45.14 -100.18 L -63.35 -109.73 L -50.24 -116.02 L -32.02 -106.64 z" fill="none" stroke="black" id="0|10|0||24" stroke-width="0.35mm"></path><path d="M 13.37 -115.82 L 13.37 -115.82 L 55.02 -95.31 L 0 -66.05 L 0 -66.05 L 0 -66.05 L -14.16 -73.58 L -14.16 -73.58 L -14.16 -73.58 L -41.67 -88.2 L -41.67 -88.2 L -41.67 -88.2 L -55.02 -95.31 L -55.02 -95.31 L -55.02 -95.31 L 0 -122.41 L 13.37 -115.82 zM -13.89 -88.2 L -13.89 -88.2 L 0 -80.96 L 27.51 -95.31 L 13.63 -102.27 L 13.63 -102.27 L 0 -109.11 L -27.51 -95.31 zM -55.02 -95.31 L -55.02 -95.31 L -55.02 -95.31 zM 55.02 -95.31 L 55.02 -95.31 L 55.02 -95.31 zM 13.63 -102.27 L 13.63 -102.27 L 13.63 -102.27 zM 13.63 -102.27 L 13.63 -102.27 L 13.63 -102.27 z" fill="none" stroke="black" id="0|10|0||28" stroke-width="0.35mm"></path></g><g inkscape:label="Shading" inkscape:groupmode="layer" id="shading_layer"><path d=" M-165.2,51.85L-165.2,53.85 M-157.2,59.42L-157.2,47.46 M-149.2,43.06L-149.2,64.99 M-141.2,70.56L-141.2,38.67 M-133.2,57.17L-133.2,76.12 M-125.2,81.69L-125.2,62.59 M-117.2,68.02L-117.2,87.26 M-109.2,92.82L-109.2,73.44 M-101.2,78.86L-101.2,98.39 M-93.2,103.96L-93.2,84.28 M-85.2,89.7L-85.2,109.53 M-77.2,115.09L-77.2,95.13 M-69.2,100.55L-69.2,120.66 M-61.2,126.23L-61.2,105.97 M-53.2,111.39L-53.2,131.8 M-45.2,137.36L-45.2,116.81 M-37.2,122.24L-37.2,142.93 M-29.2,148.5L-29.2,127.66 M-21.2,133.08L-21.2,154.06 M-13.2,159.63L-13.2,138.5 M-5.2,143.92L-5.2,165.2 M2.8,166.86L2.8,145.54 M10.8,140.12L10.8,161.3 M18.8,155.73L18.8,134.7 M26.8,129.28L26.8,150.16 M34.8,144.59L34.8,123.86 M42.8,118.44L42.8,139.03 M50.8,133.46L50.8,113.01 M58.8,107.59L58.8,127.89 M66.8,122.32L66.8,102.17 M74.8,96.75L74.8,116.76 M82.8,111.19L82.8,91.32 M90.8,85.9L90.8,105.62 M98.8,100.06L98.8,80.48 M106.8,75.06L106.8,94.49 M114.8,88.92L114.8,69.64 M122.8,64.21L122.8,83.35 M130.8,77.79L130.8,58.79 M138.8,48.76L138.8,72.22 M146.8,66.65L146.8,41.75 M154.8,46.14L154.8,61.08 M162.8,55.52L162.8,50.53" stroke="black" stroke-width="0.5"></path><path d=" M114.49,-42.29L115.6,-41.17 M122.64,-45.45L128.03,-40.06 M132.03,-41.71L123.01,-50.74 M94.08,-79.66L93.95,-79.8 M124.32,-55.08L132.44,-46.96 M132.85,-52.2L127.89,-57.17 M102.43,-82.63L98.47,-86.59 M64.4,-126.31L66.39,-124.33 M98.77,-91.95L110.32,-80.39 M131.45,-59.27L133.27,-57.45 M113.93,-82.44L103.56,-92.81 M74.33,-127.7L76.94,-125.09 M114.39,-87.64L117.55,-84.48 M83.22,-124.47L74.55,-133.14 M74.76,-138.58L83.47,-129.87 M83.73,-135.27L76.54,-142.46 M80.3,-144.36L83.99,-140.67 M84.24,-146.07L84.06,-146.25 M50.92,-196.36L52.55,-194.73 M56.42,-196.52L51.07,-201.87 M51.21,-207.38L60.3,-198.3 M64.17,-200.09L54.87,-209.38 M64.55,-205.37L68.04,-201.87" stroke="black" stroke-width="0.5"></path><path d=" M-109.69,15.41L-102.32,8.04 M-127.49,16.24L-118.9,7.65 M-127.25,7.51L-128.11,8.37 M-64.3,-123.32L-64.35,-123.27 M-74.43,-130.16L-81.75,-122.84 M-83.46,-129.61L-74.75,-138.32 M-78.24,-143.32L-83.85,-137.72 M-84.23,-145.81L-83.88,-146.16 M-52.98,-227.97L-51.78,-229.17 M-52,-237.44L-58.89,-230.56 M-64.79,-233.14L-55.65,-242.27 M-69.63,-236.78L-70.7,-235.72" stroke="black" stroke-width="0.5"></path><path d=" M-123.87,19.74L-123.87,21.4 M-115.87,26.59L-115.87,16.21 M-107.87,-1.35L-107.87,6.5 M-75.87,46.11L-75.87,52.58 M-67.87,57.77L-67.87,46.84 M-67.87,36.88L-67.87,35.43 M-27.87,76.07L-27.87,83.75 M-19.87,88.95L-19.87,77.47 M-19.87,66.44L-19.87,65.66 M20.13,65.5L20.13,66.6 M20.13,77.31L20.13,88.78 M28.13,83.59L28.13,76.23 M68.13,16.89L68.13,23.39 M76.13,27.94L76.13,19.23" stroke="black" stroke-width="0.5"></path><path d="" stroke="black" stroke-width="0.5"></path><path d=" M52.18,65.34L52.02,65.18 M52.19,59.69L55.62,63.12 M59.05,60.9L52.36,54.21 M52.53,48.72L62.48,58.67 M65.92,56.45L60.25,50.79 M-33.9,-122.56L-35.39,-124.06 M-32.98,-127.3L-30.09,-124.41 M-22.11,-127.74L-19.32,-124.95 M-14.18,-125.47L-22.19,-133.48 M-22.26,-139.21L-14.22,-131.17 M-14.26,-136.86L-20.86,-143.47 M-17.01,-145.28L-14.3,-142.56 M-47.88,-232.71L-45.41,-230.24 M-41.39,-231.88L-48.03,-238.51 M-46.78,-242.92L-37.37,-233.51 M-33.35,-235.15L-37,-238.8" stroke="black" stroke-width="0.5"></path><path d=" M-67.27,41.15L-68.08,41.96 M-76.41,41.81L-74.31,39.7 M-74.67,31.58L-83.42,40.33 M-83.84,32.27L-79.61,28.03 M33.61,-127.61L30.3,-124.3 M22.18,-133.16L14.18,-125.15 M14.24,-133.7L22.3,-141.76 M17.23,-145.17L14.29,-142.24 M43.8,-197.2L47.03,-200.43 M47.26,-209.14L37.86,-199.75 M31.93,-202.3L34.77,-205.14" stroke="black" stroke-width="0.5"></path><path d=" M14.97,73.4L16.46,74.9 M19.92,72.7L15.92,68.7 M33.17,74.64L26.96,68.43 M27.04,62.86L35.87,71.68 M36,66.16L29.46,59.62 M32.93,57.43L36.13,60.63 M15.42,17.29L16.34,18.21 M19.88,16.1L15.47,11.68 M30.26,15.16L27.83,12.73 M27.91,7.16L37.18,16.42 M37.31,10.9L28,1.59 M31.56,-0.51L37.44,5.37 M37.58,-0.15L35.12,-2.61 M-57.01,-94.74L-60.96,-98.68 M-61.17,-104.55L-54.44,-97.82 M-50.65,-99.69L-53,-102.04 M-2,-84.98L-4.91,-87.89 M2,-97.95L10.37,-89.58 M14.72,-90.89L2,-103.61 M8.82,-102.45L18.44,-92.83 M22.16,-94.77L20.17,-96.75" stroke="black" stroke-width="0.5"></path><path d=" M-167.11,64.22L-167.38,63.95 M-168.05,57.63L-147.93,77.75 M-128.75,91.27L-152.36,67.66 M-133.75,80.61L-109.56,104.8 M-90.38,118.32L-115.15,93.55 M-96.55,106.5L-71.2,131.85 M-52.02,145.37L-77.95,119.44 M-59.34,132.39L-32.84,158.89 M-13.66,172.42L-40.74,145.34 M-22.14,158.28L-2,178.42 M-2,172.76L-3.54,171.23" stroke="black" stroke-width="0.5"></path><path d=" M81.08,17.42L82.5,16 M82.23,7.79L75.64,14.38 M70.09,11.45L76.76,4.78 M71.26,1.78L61.01,12.03 M61.33,3.24L65.81,-1.24 M-14.98,71.06L-17.91,73.98 M84.91,-37.32L85.25,-37.66 M85.7,-46.6L79.34,-40.23 M-26.99,66.1L-35.79,74.9 M-35.99,66.61L-29.18,59.8 M101.01,-78.87L98.07,-75.93 M70.5,-48.36L62.89,-40.76 M-34.38,56.52L-36.19,58.32 M63.21,-49.56L70.87,-57.22 M94.62,-89.46L86.7,-81.54 M65.26,-60.1L63.52,-58.36 M-19.59,16.27L-15.46,12.14 M81.02,-84.34L86.98,-90.3 M-37.17,16.88L-27.91,7.62 M-29.49,0.71L-37.37,8.59 M-37.56,0.3L-34.83,-2.43 M-15.94,-46.77L-18.62,-44.1 M-28.82,-50.87L-36.09,-43.59 M-38.74,-49.43L-28.95,-59.22 M-2,-94.66L-3.6,-93.06 M-32.32,-64.34L-38.94,-57.72 M-39.14,-66.01L-37.82,-67.33 M-14.41,-90.73L-2,-103.14 M-13.56,-100.07L-19.99,-93.64" stroke="black" stroke-width="0.5"></path><path d=" M147.93,77.75L168.05,57.63 M143.06,74.13L119.15,98.04 M90.38,118.32L115.15,93.55 M87.25,112.97L61.61,138.61 M32.84,158.89L59.34,132.39 M31.44,151.81L4.07,179.18 M2,172.76L3.54,171.23" stroke="black" stroke-width="0.5"></path><path d=" M-29.31,19.23L-29.31,26.12 M-21.31,31L-21.31,19.9 M-21.31,10L-21.31,5.52 M18.69,7.06L18.69,8.48 M18.69,21.47L18.69,32.6 M26.69,27.72L26.69,17.72 M34.69,22.34L34.69,22.85 M66.69,-36.19L66.69,-34.12 M74.69,-29.87L74.69,-38.15 M74.69,-45.43L74.69,-52.69 M82.69,-51.19L82.69,-50.05 M82.69,-33.97L82.69,-25.63 M114.69,-35.97L114.69,-25.91 M122.69,-30.78L122.69,-38.28" stroke="black" stroke-width="0.5"></path><path d=" M-92.96,-100.29L-91.22,-98.56 M-81.07,-94.06L-93.28,-106.27 M-93.6,-112.25L-72.9,-91.54 M-69.1,-93.4L-93.92,-118.22 M-94.24,-124.2L-65.31,-95.27 M-65.03,-100.65L-77.14,-112.76 M-87.14,-122.76L-94.56,-130.18 M-94.88,-136.16L-87.42,-128.7 M-87.7,-134.63L-95.21,-142.14 M-95.53,-148.11L-87.99,-140.57 M-56.83,-115.08L-60.12,-118.37 M-88.27,-146.51L-95.85,-154.09 M-96.17,-160.07L-87.5,-151.4 M-60.33,-124.23L-53.01,-116.91 M-52.41,-121.97L-60.53,-130.09 M-78.24,-147.8L-96.49,-166.05 M-96.81,-172.03L-66.84,-142.05 M-60.74,-135.95L-52.57,-127.79 M-52.74,-133.61L-97.13,-178 M-97.45,-183.98L-52.9,-139.43 M-53.06,-145.25L-97.77,-189.96 M-98.1,-195.94L-53.23,-151.07 M-53.39,-156.89L-98.42,-201.92 M-98.74,-207.89L-53.56,-162.71 M-53.72,-168.53L-99.06,-213.87 M-99.38,-219.85L-53.88,-174.35 M-54.05,-180.17L-99.7,-225.83 M-100.02,-231.81L-54.21,-185.99 M-54.37,-191.82L-91.92,-229.36 M-81.72,-224.82L-54.54,-197.64 M-54.7,-203.46L-71.52,-220.28 M-61.32,-215.73L-54.87,-209.28" stroke="black" stroke-width="0.5"></path><path d=" M-118.03,62.62L-135.06,45.59 M-135.58,39.41L-100.48,74.52 M-82.92,86.41L-136.1,33.23 M-136.62,27.05L-65.37,98.31 M-47.84,110.18L-137.15,20.87 M-137.67,14.7L-130.52,21.85 M-130.22,22.14L-30.26,122.11 M-12.7,134.01L-114.36,32.35 M-131.59,15.12L-138.19,8.52 M-134.7,6.35L-132.07,8.98 M-105.44,35.61L-2,139.05 M-2,133.39L-82.08,53.31 M-87,48.39L-105.75,29.65 M-103.29,26.45L-87.32,42.42 M-65.94,63.8L-2,127.74 M-2,122.08L-59.72,64.36 M-87.63,36.45L-95.04,29.04 M-95.4,23.03L-87.94,30.48 M-59.94,58.48L-39.71,78.72 M-33.66,84.76L-2,116.42 M-2,110.77L-17.52,95.24 M-39.84,72.92L-60.17,52.6 M-88.26,24.51L-95.75,17.01 M-96.11,11L-87.46,19.64 M-60.4,46.71L-39.98,67.13 M-10.57,96.54L-2,105.11 M-2,99.45L-10.83,90.63 M-40.12,61.33L-60.62,40.83 M-75.65,25.8L-96.46,4.99 M-96.82,-1.02L-40.26,55.54 M-10.87,84.92L-2,93.79 M-2,88.14L-10.92,79.22 M-39.9,50.24L-97.18,-7.04 M-97.53,-13.05L-29.81,54.67 M-10.96,73.52L-2,82.48 M-2,76.82L-11.01,67.81 M-14.53,64.3L-97.89,-19.06 M-98.24,-25.08L-2,71.17 M-2,65.51L-98.6,-31.09 M-98.96,-37.1L-41.08,20.77 M-33.75,28.1L-2,59.85 M-2,54.2L-19.27,36.93 M-41.22,14.98L-99.31,-43.11 M-99.67,-49.13L-41.36,9.19 M-11.28,39.26L-2,48.54 M-2,42.88L-11.29,33.59 M-41.49,3.39L-100.02,-55.14 M-100.38,-61.15L-41.63,-2.4 M-11.34,27.89L-2,37.23 M-2,31.57L-11.38,22.19 M-41.77,-8.2L-100.74,-67.17 M-101.09,-73.18L-35.21,-7.3 M-11.43,16.48L-2,25.91 M-2,20.26L-11.47,10.78 M-21.47,0.78L-101.45,-79.19 M-101.8,-85.2L-2,14.6 M-2,8.94L-92.21,-81.27 M-79.5,-74.21L-2,3.29 M-2,-2.37L-30.82,-31.19 M-42.59,-42.96L-66.79,-67.16 M-54.08,-60.11L-42.73,-48.76 M-17.78,-23.8L-2,-8.03 M-2,-13.68L-11.48,-23.16 M-42.87,-54.55L-52.04,-63.72 M-52.22,-69.56L-43.01,-60.35 M-11.8,-29.14L-2,-19.34 M-2,-25L-11.85,-34.84 M-43.14,-66.14L-52.4,-75.4 M-52.58,-81.24L-43.28,-71.94 M-11.89,-40.55L-2,-30.66 M-2,-36.31L-11.94,-46.25 M-37.27,-71.58L-52.77,-87.08 M-50.85,-90.82L-24.88,-64.85 M-11.98,-51.95L-2,-41.97 M-2,-47.63L-38.78,-84.4 M-26.7,-77.98L-2,-53.28 M-2,-58.94L-14.62,-71.56 M-2.54,-65.14L-2,-64.6" stroke="black" stroke-width="0.5"></path><path d=" M-134.38,1.81L-134.38,-1.18 M-126.38,-3.26L-126.38,2.51 M-102.38,22.28L-102.38,19.85" stroke="black" stroke-width="0.5"></path><path d=" M129.24,55.02L134.72,49.54 M135.51,40.27L102.91,72.86 M76.58,90.71L136.29,31 M137.07,21.73L50.25,108.56 M23.91,126.41L87.55,62.77 M97.65,52.67L137.86,12.46 M138.64,3.19L98.18,43.65 M62.66,79.17L2,139.83 M2,131.35L47.38,85.97 M98.71,34.63L139.42,-6.07 M140.21,-15.34L99.25,25.62 M47.64,77.22L2,122.86 M2,114.38L27.83,88.55 M39.76,76.62L47.91,68.47 M99.78,16.6L140.99,-24.61 M141.77,-33.88L100.32,7.58 M48.19,59.71L39.96,67.93 M10.78,97.12L2,105.89 M2,97.41L10.84,88.57 M40.17,59.24L48.46,50.95 M100.85,-1.44L129.9,-30.49 M135.61,-36.2L142.56,-43.15 M143.34,-52.42L136.33,-45.41 M110.4,-19.47L101.39,-10.46 M48.73,42.19L40.37,50.55 M10.91,80.01L2,88.92 M2,80.44L10.98,71.46 M24.29,58.15L49.01,33.43 M101.92,-19.48L109.48,-27.04 M137.06,-54.62L144.12,-61.68 M144.9,-70.95L137.78,-63.83 M110.07,-36.12L102.45,-28.5 M49.28,24.67L2,71.95 M2,63.47L49.55,15.91 M102.99,-37.52L110.67,-45.2 M126.42,-60.95L145.69,-80.22 M129.36,-72.37L103.52,-46.54 M49.83,7.16L41.2,15.78 M21.28,35.7L2,54.98 M2,46.5L11.26,37.24 M41.4,7.09L50.1,-1.6 M104.06,-55.56L109.28,-60.78 M50.37,-10.36L41.61,-1.6 M11.33,28.68L2,38.01 M2,29.53L11.4,20.13 M40.85,-9.33L50.65,-19.12 M50.92,-27.88L23.38,-0.34 M11.47,11.57L2,21.04 M2,12.56L51.19,-36.64 M51.47,-45.4L2,4.07 M2,-4.42L51.74,-54.15 M52.01,-62.91L2,-12.9 M2,-21.39L52.29,-71.67 M52.56,-80.43L2,-29.87 M2,-38.36L52.83,-89.19 M40.45,-85.29L2,-46.84 M2,-55.33L22.34,-75.66 M4.22,-66.03L2,-63.81" stroke="black" stroke-width="0.5"></path><path d=" M55.67,29.83L53.2,27.36 M53.37,21.87L69.05,37.56 M82.44,45.29L61.21,24.06 M56.74,19.59L53.54,16.39 M53.71,10.9L56.94,14.13 M74.31,31.5L93.74,50.93 M94.06,45.59L84.65,36.19 M57.13,8.66L53.88,5.42 M54.05,-0.07L57.32,3.2 M85.71,31.59L94.38,40.25 M94.69,34.91L85.98,26.21 M57.52,-2.26L54.22,-5.55 M54.4,-11.04L57.71,-7.72 M86.26,20.82L95.01,29.57 M95.32,24.23L86.54,15.44 M64.65,-6.45L54.57,-16.53 M54.74,-22.01L77.21,0.46 M86.81,10.06L95.64,18.89 M95.96,13.55L54.91,-27.5 M55.08,-32.98L96.27,8.21 M96.59,2.87L61.24,-32.48 M58.69,-35.03L55.25,-38.47 M55.42,-43.95L58.88,-40.49 M73.29,-26.08L96.91,-2.47 M97.22,-7.81L85.35,-19.69 M59.08,-45.96L55.59,-49.44 M55.77,-54.92L59.27,-51.42 M88.46,-22.23L97.54,-13.15 M97.85,-18.49L88.74,-27.61 M59.47,-56.88L55.94,-60.41 M56.11,-65.9L59.66,-62.34 M89.01,-32.99L98.17,-23.83 M98.49,-29.17L89.29,-38.37 M61.39,-66.27L56.28,-71.38 M5.95,-121.71L2,-125.66 M2,-131.32L10.16,-123.15 M56.45,-76.87L72.36,-60.96 M89.56,-43.75L98.8,-34.52 M99.12,-39.86L89.84,-49.14 M83.93,-55.05L62.01,-76.97 M10.2,-128.77L2,-136.97 M2,-142.63L10.24,-134.39 M38.92,-105.72L39.4,-105.23 M73.34,-71.29L99.44,-45.2 M99.75,-50.54L84.68,-65.61 M47.86,-102.43L39.12,-111.16 M10.28,-140.01L2,-148.29 M2,-153.95L10.32,-145.63 M39.24,-116.7L48.01,-107.93 M96.02,-59.93L100.07,-55.88 M48.17,-113.44L39.36,-122.25 M10.49,-151.11L2,-159.6 M2,-165.26L18.05,-149.21 M39.47,-127.79L48.32,-118.94 M48.48,-124.44L39.59,-133.33 M28.72,-144.2L2,-170.92 M2,-176.57L48.63,-129.94 M48.79,-135.44L2,-182.23 M2,-187.89L48.94,-140.95 M49.1,-146.45L2,-193.54 M2,-199.2L49.25,-151.95 M49.41,-157.45L10.65,-196.21 M20.69,-191.82L49.56,-162.95 M49.72,-168.45L30.74,-187.43 M40.78,-183.05L49.87,-173.96" stroke="black" stroke-width="0.5"></path><path d=" M93.92,-118.28L79.73,-104.08 M61.42,-94.26L83,-115.84 M87,-119.84L94.41,-127.24 M94.89,-136.21L87.42,-128.75 M65.11,-106.43L55.82,-97.14 M51.84,-101.64L59.82,-109.63 M87.85,-137.65L95.37,-145.18 M95.85,-154.14L88.27,-146.56 M60.13,-118.42L52.08,-110.37 M52.33,-119.11L60.43,-127.21 M83.84,-150.62L96.33,-163.11 M96.81,-172.08L66.74,-142 M60.74,-136L52.57,-127.84 M52.82,-136.57L97.3,-181.04 M97.78,-190.01L53.07,-145.3 M53.31,-154.03L98.26,-198.98 M83.8,-193L53.56,-162.76 M53.8,-171.49L67.8,-185.49" stroke="black" stroke-width="0.5"></path><path d=" M55.25,79.27L55.25,68.12 M55.25,43.22L55.25,34.21 M63.25,38.83L63.25,47.91 M63.25,62.94L63.25,73.99 M71.25,68.72L71.25,57.76 M71.25,52.6L71.25,43.45 M79.25,48.07L79.25,63.45 M87.25,58.17L87.25,52.68" stroke="black" stroke-width="0.5"></path><path d=" M-73.93,-122.08L-73.93,-115.59 M-65.93,-85.82L-65.93,-90.51 M-65.93,-111.38L-65.93,-119.59 M-65.93,-130.24L-65.93,-136.86 M-57.93,-89.39L-57.93,-81.46 M-33.93,-37.55L-33.93,-40.22 M-33.93,-110.67L-33.93,-118.11 M-33.93,-132.24L-33.93,-137.33 M-25.93,-121.97L-25.93,-114.59 M-25.93,-43.59L-25.93,-33.02 M-17.93,-28.49L-17.93,-39.14 M-17.93,-53.32L-17.93,-56.52 M-17.93,-118.52L-17.93,-119.79 M22.07,-121.85L22.07,-116.48 M30.07,-112.56L30.07,-119.97 M30.07,-130.32L30.07,-137.62 M70.07,-134.95L70.07,-128.3 M70.07,-121.73L70.07,-113.56 M78.07,-117.77L78.07,-120.15" stroke="black" stroke-width="0.5"></path><path d=" M-2,-124.73L-4.13,-122.61 M-10.18,-125.04L-2,-133.22 M-2,-141.7L-10.23,-133.47 M-39.46,-112.72L-39.16,-113.03 M-10.29,-141.9L-2,-150.19 M-2,-158.67L-10.35,-150.32 M-39.34,-121.34L-45.07,-115.61 M-48.37,-120.79L-39.51,-129.65 M-21.64,-147.52L-2,-167.16 M-2,-175.65L-37.64,-140.01 M-39.68,-137.96L-48.61,-129.04 M-48.84,-137.29L-2,-184.13 M-2,-192.62L-49.07,-145.55 M-49.3,-153.8L-2,-201.1 M-2,-209.59L-49.54,-162.05 M-49.77,-170.3L-2,-218.07 M-2,-226.56L-50,-178.56 M-50.23,-186.81L-5.21,-231.84 M-19.68,-225.84L-50.46,-195.06 M-50.7,-203.32L-34.16,-219.85 M-48.63,-213.86L-50.93,-211.57" stroke="black" stroke-width="0.5"></path><path d="" stroke="black" stroke-width="0.5"></path><path d=" M60.93,-81.98L60.93,-89.46 M68.93,-93.75L68.93,-77.97 M76.93,-73.97L76.93,-81.89 M76.93,-89.37L76.93,-98.04 M84.93,-102.33L84.93,-93.74 M84.93,-77.95L84.93,-69.96 M92.93,-65.95L92.93,-74.01 M92.93,-98.11L92.93,-106.62 M100.93,-105.51L100.93,-98.5 M100.93,-70.53L100.93,-61.94 M108.93,-65.2L108.93,-75 M108.93,-94.68L108.93,-101.75 M116.93,-97.99L116.93,-90.86 M116.93,-79.54L116.93,-69.82 M124.93,-74.44L124.93,-84.07 M124.93,-87.04L124.93,-94.23 M132.93,-90.47L132.93,-79.06 M140.93,-83.67L140.93,-86.71" stroke="black" stroke-width="0.5"></path><path d=" M11.99,-206.1L11.99,-199.99 M19.99,-196.49L19.99,-209.59 M27.99,-213.09L27.99,-206.51 M27.99,-199.63L27.99,-193 M35.99,-189.5L35.99,-196.2 M35.99,-210.06L35.99,-216.58 M43.99,-220.07L43.99,-213.62 M43.99,-192.76L43.99,-186.01 M51.99,-182.52L51.99,-190.07 M51.99,-214.91L51.99,-220.68 M59.99,-217.42L59.99,-211.59 M59.99,-193.76L59.99,-186.25 M67.99,-190L67.99,-197.44 M67.99,-208.27L67.99,-214.15 M75.99,-210.88L75.99,-204.94 M75.99,-201.13L75.99,-193.76 M83.99,-197.51L83.99,-207.61 M91.99,-204.35L91.99,-201.27" stroke="black" stroke-width="0.5"></path><path d=" M-89.72,-238.86L-89.72,-232.76 M-81.72,-229.2L-81.72,-241.95 M-73.72,-245.04L-73.72,-239.47 M-73.72,-232.67L-73.72,-225.63 M-65.72,-222.07L-65.72,-229.18 M-65.72,-242.62L-65.72,-248.13 M-57.72,-251.22L-57.72,-245.76 M-57.72,-225.68L-57.72,-218.51 M-49.72,-217.74L-49.72,-224.17 M-49.72,-248.5L-49.72,-254.32 M-41.72,-251.26L-41.72,-245.13 M-41.72,-227.43L-41.72,-221.05 M-33.72,-224.36L-33.72,-230.68 M-33.72,-241.76L-33.72,-247.95 M-25.72,-244.64L-25.72,-238.39 M-25.72,-233.93L-25.72,-227.67 M-17.72,-230.99L-17.72,-241.32 M-9.72,-238.01L-9.72,-234.3" stroke="black" stroke-width="0.5"></path><path d=" M-99.07,-90.35L-99.07,-89.65 M-91.07,-85.21L-91.07,-94.19 M-83.07,-90.6L-83.07,-80.77 M-75.07,-76.33L-75.07,-86.24 M-67.07,-81.89L-67.07,-71.89 M-59.07,-67.45L-59.07,-77.53 M-51.07,-113.4L-51.07,-105.55 M-43.07,-103.42L-43.07,-110.08" stroke="black" stroke-width="0.5"></path><path d=" M-48.41,-96.33L-48.41,-94.05 M-40.41,-89.8L-40.41,-100.27 M-32.41,-104.22L-32.41,-85.55 M-24.41,-81.3L-24.41,-91.43 M-24.41,-99.1L-24.41,-108.16 M-16.41,-112.1L-16.41,-103.11 M-16.41,-87.26L-16.41,-77.04 M-8.41,-72.79L-8.41,-83.09 M-8.41,-107.13L-8.41,-116.04 M-0.41,-119.98L-0.41,-111.11 M-0.41,-78.96L-0.41,-68.54 M7.59,-72.35L7.59,-82.66 M7.59,-107.54L7.59,-116.44 M15.59,-112.5L15.59,-103.53 M15.59,-86.83L15.59,-76.61 M23.59,-80.86L23.59,-91.01 M23.59,-99.51L23.59,-108.56 M31.59,-104.62L31.59,-85.11 M39.59,-89.36L39.59,-100.68 M47.59,-96.74L47.59,-93.62" stroke="black" stroke-width="0.5"></path></g></svg>